<?xml version="1.0"?>
<svg version="1.1" id="圖層_1" xmlns="http://www.w3.org/2000/svg" x="0" y="0" viewBox="0 0 100 100" xml:space="preserve"><path d="M41.6 18.9L11.3 71.4c-3.7 6.5.9 14.6 8.4 14.6h60.6c7.5 0 12.1-8.1 8.4-14.6L58.4 18.9c-3.7-6.4-13.1-6.4-16.8 0z" fill="#fff" stroke="#e15b64" stroke-width="9" stroke-miterlimit="10"/><g><path fill="none" stroke="#333" stroke-width="4.186" stroke-miterlimit="10" d="M25 72h50"/><path d="M38.6 65c-4.7 0-8.6 2.9-10.2 7h20.4c-1.5-4.1-5.5-7-10.2-7z" fill="#333"/><path d="M61 65c-4.7 0-8.6 2.9-10.2 7h20.4c-1.5-4.1-5.5-7-10.2-7z" fill="#333"/></g><metadata xmlns:d="https://loading.io/stock/"><d:name>bumpy road</d:name><d:tags>uneven,traffic sign,road,caution,warning,bumpy road,transportation</d:tags><d:license>by</d:license><d:slug>7h082w</d:slug></metadata></svg>