<?xml version="1.0" encoding="UTF-8" standalone="no"?>
<svg id="svg4198" xmlns:rdf="http://www.w3.org/1999/02/22-rdf-syntax-ns#" xmlns="http://www.w3.org/2000/svg" height="577" viewBox="0 0 1428 577" width="1428" version="1.1" xmlns:cc="http://creativecommons.org/ns#" xmlns:dc="http://purl.org/dc/elements/1.1/">
<path id="path4210" d="m879.5 575.76c-52.51-12.89-80.7-41.54-95.21-96.76-6.1492-23.392 0.80514-79.548 12.357-99.779 7.7884-13.64 17.115-24.727 25.096-29.832 4.9059-3.1383 6.6615-5.3888 4.2038-5.3888-20.538 0-49.707 62.146-46.449 98.959l0.68612 7.751-4.3412 1.7531c-11.63 4.6963-19.954 5.6335-30.955 3.4853-6.5364-1.2764-60.759-9.2567-80.966-11.916-8.0184-1.0554-15.668-2.3733-17-2.9287-1.3315-0.55539-10.071-1.9601-19.421-3.1216s-26-3.6334-37-5.493c-11-1.8597-26.75-4.3306-35-5.491s-28.036-4.1251-43.969-6.5883-42.708-6.4977-59.5-8.9655c-29.239-4.2971-70.745-11.186-93.029-15.44-13.18-2.5161-12.916-2.529-12.69 0.62154l0.18826 2.6256-9-0.13948c-4.95-0.0767-15.164-0.64048-22.697-1.2528-16.23-1.32-16.8-1.19-16.8 3.94 0 24.799-21.674 56.384-43.269 63.054-52.674 16.269-96.792-8.5108-114.7-64.427-13.102-40.901-1.3482-108.53 21.078-121.29 4.7616-2.7086 3.912-5.2547-0.90615-2.7158-10.901 5.7445-22.81 27.884-26.13 48.577-0.57356 3.575-1.3864 8.7065-1.8064 11.403l-0.76357 4.9033-8.5 1.7297c-10.61 2.1591-10.546 2.2276-9.1513-9.7335 3.0233-25.926 14.443-46.843 32.19-58.963 20.397-13.929 57.515-9.6233 81.461 9.4492 4.8498 3.8629 17.5 16.444 17.5 17.405 0 0.48559 2.6479 4.8209 5.8842 9.634 7.6208 11.334 13.742 23.732 19.094 38.672 6.1755 17.241 10.232 20.925 8.0538 7.3153-5.17-32.35-31.57-80.77-50.59-92.78-41.08-25.95-84.92-14.65-104.7 26.97-7.8399 16.501-15.879 50.02-12.509 52.159 2.4624 1.5626-0.87912 0.79265-19.723-4.5448-30.242-8.566-40.322-13.204-45.081-20.742l-2.442-3.87h-7.3917c-31.796 0-48.343-31.27-20.959-39.608 3.2315-0.98389 6.0003-1.8621 6.153-1.9516 0.15269-0.0895-0.87735-3.8188-2.289-8.2874-2.646-8.37-4.185-10.15-8.7998-10.15-4.1237 0-6.5591-5.3115-4.0669-8.8697 0.85231-1.2168 1.0197-2.2342 0.4277-2.6001-0.53487-0.33057-0.90466-3.1726-0.82176-6.3156s-0.20016-6.7603-0.62902-8.0383c-0.46627-1.3895-0.2732-3.5466 0.48023-5.3656 1.101-2.6581 1.0402-3.1648-0.48185-4.0166-1.8322-1.0253-1.4823-7.9126 0.52884-10.411 0.56398-0.70073 0.3354-1.5853-0.61306-2.3724-2.3792-1.9745-1.8524-6.614 1.0574-9.3121 1.969-1.8257 3.0434-4.568 4.5959-11.73 5.814-26.82 12.059-31.97 41.834-34.49 4.125-0.3486 24.15-2.6051 44.5-5.0144s46-5.3021 57-6.4283c27.008-2.7653 32.378-3.6176 34.418-5.4636 0.95687-0.86596 2.5272-1.5745 3.4897-1.5745 0.96248 0 6.327-4.2095 11.921-9.3545 25.036-23.025 44.563-40.483 62.171-55.584 10.45-8.9616 21.25-18.394 24-20.96 8.5944-8.0203 19.008-16.184 24.097-18.893 4.52-2.406 51.02-10.981 79.4-14.644 30.1-3.8851 80.35-7.7624 123.5-9.5303 13.75-0.5633 29.34-1.2691 34.64-1.5685 28.65-1.6166 190.49 1.5219 206.86 4.0114 1.375 0.20913 10.15 0.66801 19.5 1.0197 55.225 2.0774 100.81 8.9282 118.37 17.788 10.107 5.1007 57.227 45.074 83.632 70.947 6.6 6.467 12.492 11.76 13.093 11.763 0.6014 0.002 3.7093-0.8955 6.9066-1.9955 15.392-5.2955 18.689-2.1523 18.567 17.7l-0.075 12.2 4.0035 3.2174c2.202 1.7696 4.0036 3.817 4.0036 4.55 0 1.4751 2.1135 1.7911 9.341 1.3969 5.3205-0.29024 8.654 1.97 12.811 8.6858 1.7428 2.8158 2.5685 3.2533 6.18 3.2744 6.0368 0.0354 12.863 1.8145 15.168 3.9531 1.6024 1.4867 8.56 2.776 35 6.4856 18.15 2.5465 42.9 6.1698 55 8.0518s27.4 4.1339 34 5.004c28.694 3.7832 74.123 12.335 105.81 19.918 8.1455 1.9493 25.47 5.8288 38.5 8.621 24.284 5.2039 35.291 8.4118 42.061 12.257 5.5204 3.1356 21.128 20.088 21.128 22.948 0 1.2606 0.7224 3.3235 1.6054 4.5841 1.0358 1.4788 1.6227 4.4851 1.6542 8.4725 0.03 3.7538 0.6441 7.097 1.565 8.5149 1.28 1.9709 1.3177 2.883 0.2422 5.8572-1.0967 3.0329-1.0296 4.0645 0.4826 7.4178 1.6774 3.7199 1.6767 3.9831-0.016 5.8535-1.3905 1.5364-1.6307 2.9034-1.1148 6.3436 0.4818 3.2129 0.2762 4.7017-0.7691 5.5692-0.7846 0.65122-1.7434 3.7193-2.1305 6.818-0.3872 3.0987-1.3204 6.2504-2.0738 7.0038-0.7535 0.75343-1.8024 2.9363-2.3311 4.8508-0.5286 1.9145-2.1205 4.8588-3.5376 6.543-4.4269 5.261-3.6788 6.2573 6.1983 8.2538 10.502 2.1228 15.344 4.2135 20.842 8.9991 8.859 7.7112 5.9081 23.656-4.378 23.656-1.3964 0-2.1819 1.2535-3.1483 5.0244-1.9319 7.5378-9.8495 12.172-34.748 20.338-12.942 4.2448-17.837 6.3696-17.943 7.7901-0.909 12.153-26.819 39.373-42.812 44.977-2.2667 0.79423-4.637 2.5593-5.6348 4.1961-0.9473 1.5538-2.6853 3.4996-3.8622 4.324-1.1769 0.82435-3.6726 4.5424-5.5459 8.2623-6.2825 12.475-26.85 29.089-36.012 29.089-0.9154 0-2.5166 0.4561-3.5582 1.0136-18.393 9.8437-68.323 5.5301-92.242-7.9691-7.7749-4.3879-21.524-4.4097-37.019-0.0587-46.859 13.158-111.88 7.0307-117.92-11.113-0.3649-1.0948-1.7989-1.0939-8.3656 0.005-10.074 1.6864-9.4239 1.0364-9.4328 9.4312-0.0292 27.754-16.502 64.793-35.044 78.795-7.6658 5.7887-15.262 8.8735-39.948 16.223-15.336 4.5656-34.029 6.01-44.5 3.4386zm56.49-25.145c4.9554-4.8466 9.0199-9.1062 9.0321-9.4658 0.0122-0.35957 0.93069-1.7788 2.041-3.1538 3.36-4.16 8.94-12.97 8.94-14.12 0-0.59196 0.73926-2.4957 1.6428-4.2306 3.0577-5.871 3.3572-6.6241 3.3572-8.4407 0-0.99746 0.41868-2.2411 0.9304-2.7636 4.0992-4.1856 9.316-48.713 5.9201-50.53-4.4541-2.3838-5.2064-1.0934-5.5859 9.5821-0.67756 19.059-5.4109 41.618-11.282 53.77-1.0904 2.2568-1.9825 4.4735-1.9825 4.9261 0 2.3123-11.555 19.01-16.471 23.801-5.8605 5.7121-10.238 12.056-7.1111 10.306 0.85934-0.48091 5.6169-4.8398 10.572-9.6864zm19.294-6.7018c0.98143-1.3298 3.1644-4.2178 4.8509-6.4178 4.7595-6.2083 14.857-27.487 14.871-31.339 0.003-0.91377 0.61737-2.8327 1.3644-4.2643 1.2383-2.3731 2.5696-8.4897 3.2424-14.897 2.7727-26.406 2.7861-26-0.85604-26-2.2471 0-2.3649 0.48854-4.6197 19.159-2.0868 17.279-3.7083 25.468-6.2055 31.341-0.46772 1.1-1.7616 4.8651-2.8752 8.3668-1.1136 3.5018-3.7303 9.1268-5.8147 12.5-2.0844 3.3733-4.4298 7.4832-5.212 9.1332-0.78214 1.65-3.0253 5.025-4.9848 7.5s-4.1879 5.4-4.952 6.5c-1.8289 2.6328 8.8788-8.4488 11.191-11.582zm11.99-0.67c7.5264-8.3407 16.909-28.12 20.279-42.75 5.1546-22.376 6.4626-34.416 3.9641-36.489-3.3395-2.7715-4.1948-0.60211-4.7904 12.151-0.7989 17.105-8.6208 43.246-17.319 57.879-5.3939 9.0742-6.5624 14.117-2.134 9.2097zm-83.006-8.9242c8.91-2.8 25.74-16.37 25.74-20.76 0-2.5465-1.2197-1.8736-6.6661 3.6778-24.744 25.221-60.076 11.192-78.7-31.25-4.369-9.9559-6.5486-13.998-6.598-12.237-0.064 2.2802 3.7905 15.131 5.3881 17.964 0.86001 1.5251 2.4982 5.0229 3.6404 7.7729 11.056 26.62 35.646 41.591 57.199 34.826zm-1.258-11.895c28.23-6.43 47.26-51.43 36.57-86.44-1.9122-6.2609-2.3666-8.4572-2.4846-12.009-0.4567-13.748-30.683-47.477-46.179-51.533-41.125-10.762-70.466 51.675-47.953 102.04 0.98339 2.2 2.1307 5.125 2.5495 6.5 1.097 3.6012 7.2284 15.635 9.2659 18.186 9.423 11.797 19.45 19.803 27.955 22.32 3.1783 0.94074 6.2287 1.8512 6.7787 2.0231 2.3828 0.74508 7.0777 0.36312 13.505-1.0987zm-15.161-7.7754c-8.58-3.19-16.88-9.56-23-17.66-4.3-5.69-9.84-14.72-9.84-16.03 0-0.5492-0.43161-1.7799-0.95913-2.735-6.9275-12.542-10.779-46.294-7.1016-62.236 13.339-57.827 73.662-43.187 87.569 21.252 9.8568 45.673-16.101 88.73-46.664 77.403zm4.4808-5.0599c0.51697-1.3472 15.023-3.3055 20.227-2.7308 1.4772 0.16313 3.0773-1.2615 5.7099-5.084 2.0117-2.9208 5.2506-6.8547 7.1977-8.7418 3.415-3.3099 3.5375-3.6805 3.4657-10.485l-0.0744-7.0538-2.3931 6.8484c-7.1158 20.364-24.117 28.276-41.783 19.446-5.1015-2.5499-6.9839-1.7645-2.3391 0.97603 2.0151 1.1889 3.6638 2.797 3.6638 3.5734 0 2.76 5.4404 5.5564 6.325 3.2511zm15.175-9.4856c14.588-6.7336 24.152-33.922 19.742-56.127-0.54473-2.7432-0.52788-5.6252 0.0429-7.3375 0.63832-1.915 0.58296-3.1769-0.17253-3.9324-0.61-0.61-1.11-1.94-1.11-2.95 0-2.38-3.76-9.76-4.97-9.76-0.5124 0-2.3736-2.1375-4.136-4.75-14.837-21.993-34.386-25.728-49.147-9.3889-4.6031 5.0951-4.9234 3.6241-0.49443-2.2713 10.826-14.41 35.978-13.685 44.908 1.2937 2.4367 4.0872 7.8234 10.116 9.0382 10.116 1.9978 0 0.76111-6.9524-1.4462-8.1303-2.9379-1.5678-10.361-9.3844-13.33-14.036-2.9074-4.5559-4.1159-5.3317-5.9434-3.815-1.0766 0.89348-2.2276 0.915-4.6054 0.0861-1.75-0.6-5.21-1.1-7.7-1.1-4.95 0-8.18-2.06-8.18-5.22 0-2.3326-1.75-1.9513-10.699 2.3309-6.2962 3.0129-15.277 12.374-15.294 15.942-0.004 0.8525-0.38305 1.9775-0.84215 2.5-5.25 5.98-8.81 41.45-4.16 41.45 1.8321 0 2-0.66667 2-7.941 0-4.3675 0.39521-8.1852 0.87825-8.4838 0.92612-0.57238 2.1218 3.997 2.1218 8.1088 0 1.368 0.43795 2.1633 1 1.816 0.55-0.33992 1-2.5932 1-5.0074 0-4.6664 4.4027-20.005 6.0309-21.012 1.2221-0.75532 1.2243-0.77291-0.50205 4.0191-1.7014 4.7225-1.8677 6.5-0.6083 6.5 0.5063 0 1.2104-1.3197 1.5647-2.9327 4.923-22.414 34.63-18.602 48.415 6.2131 2.5549 4.5994 2.5512 4.3683 0.0811 5.0143-1.8109 0.47356-1.8938 0.82049-0.80454 3.3666 1.9418 4.5388 3.0041 5.6644 3.9309 4.165 1.1697-1.8926 1.8186-0.69817 2.585 4.758 5.8334 41.534-19.046 65.894-43.224 42.321-5.8824-5.7351-6.7101-6.0219-5.1317-1.7782 1.408 3.7854 14.469 16.161 16.31 15.455 0.72118-0.27675 2.7832 0.13646 4.5822 0.91824 4.6333 2.0134 13.472 1.8245 18.271-0.39051zm-55.828-74.831c-0.35557-0.57533 0.27291-3.6859 1.3966-6.9123s2.2372-7.6362 2.4745-9.7994c0.54459-4.9652 2.6678-6.5657 3.6904-2.7818 0.44429 1.6441 0.17582 4.2928-0.68065 6.715-0.77788 2.2-1.6648 5.1806-1.971 6.6236-0.71654 3.377-4.0467 7.5517-4.9098 6.1551zm7.33-24.47c0-3.55 11.73-14.81 15.43-14.81 2.0307 0 0.21507 5.13-2.2706 6.4154-1.56 0.80671-4.015 3.012-5.4555 4.9006-2.4289 3.1845-7.7082 5.5763-7.7082 3.4923zm15.07 92.766c-2.2606-2.4062-8.1861-5.7913-8.8956-5.0818-1.2565 1.2565 5.6128 7.5075 8.2501 7.5075l2.9243 0.00003-2.2788-2.4257zm-10.783-16.811c-1.1478-1.2448-2.2444-3.126-2.4368-4.1804-0.19241-1.0544-0.98063-2.1272-1.7516-2.3839-1.0975-0.36546-1.2569 0.25739-0.73461 2.8691 0.81352 4.0676 4.5614 8.407 6.0099 6.9585 0.66667-0.66667 0.30436-1.7544-1.0869-3.2632zm34.482-5.1523c15.567-17.73-1.3032-56.86-19.803-45.932-6.2685 3.7029-11.445 23.463-7.9303 30.274 0.43883 0.8505 1.3459 3.0231 2.0157 4.828 4.7851 12.894 18.744 18.772 25.717 10.829zm-14.266-2.9076c-2.3395-1.325-4.9319-3.9583-6.2512-6.3499l-2.254-4.0861 3.9797-2.6337c5.0274-3.3269 5.036-3.3263 11.59 0.86633 8.3831 5.3626 9.1054 3.6667 1.6-3.7571-4.5387-4.4893-4.8824-5.207-6.1074-12.75-1.6824-10.359-4.935-8.866-4.1267 1.8947 0.27905 3.7147-2.7584 11.083-4.5764 11.101-0.62866 0.006-1.413 0.71499-1.7429 1.5748-1.6055 4.1838-2.852-0.25575-2.3827-8.4861 0.844-14.803 7.1939-20.962 16.641-16.142 7.6908 3.9235 14.572 25.7 9.1753 29.035-0.71737 0.44335-1.0159 1.2727-0.66349 1.843 3.3763 5.4629-8.2673 11.636-14.882 7.8901zm-26.5-1.1c0-0.76406-0.88503-2.4516-1.9667-3.75-1.9666-2.3606-1.9667-2.3606-2-0.18221-0.0183 1.1982 0.67387 2.8857 1.5382 3.75 1.9332 1.9332 2.4286 1.9704 2.4286 0.18221zm77.048-1.1685c1.0406-1.2539 1.0604-3.0522 0.10136-9.2211-1.8-11.59-3.15-11.35-3.15 0.58 0 10.105 0.54681 11.656 3.0479 8.6423zm-77.146-13.369c-1.291-9.1211-2.2799-10.929-3.7721-6.8951-1.0903 2.9474 3.1321 17.893 4.6315 16.394 0.23364-0.23364-0.1531-4.508-0.85944-9.4985zm74.083-18.133c0.008-1.9574-0.69309-4.4324-1.5589-5.5-1.5194-1.8735-1.5547-1.854-1.0136 0.55887 0.30831 1.375 0.5736 4.525 0.58953 7 0.0211 3.2774 0.29235 4.0924 0.99834 3 0.53316-0.825 0.97627-3.1015 0.98469-5.0589zm-41.98-52.94c0-0.55-1.575-1-3.5-1s-3.5 0.45-3.5 1 1.575 1 3.5 1 3.5-0.45 3.5-1zm297.5 78.948c9.35-0.5703 18.575-1.226 20.5-1.457 56.794-6.8166 119.17-20.712 138.94-30.953 2.506-1.2978 5.7815-2.8344 7.2788-3.4149 2.859-1.1082 4.4774-4.8574 3.357-7.7769-0.5223-1.3613-1.073-1.066-3.0769 1.6502-6.6652 9.0341-43.457 20.676-93.002 29.428-37.65 6.6508-109.51 13.427-109.5 10.326 0.0008-0.4125 0.3851-0.75 0.854-0.75s11.711-1.35 24.983-3 24.363-3 24.647-3c0.2843 0 0.517-0.70532 0.517-1.5674 0-1.0203-0.6108-1.3894-1.75-1.0575-0.9625 0.28044-9.4 1.4491-18.75 2.597s-22.082 2.8101-28.292 3.6938c-13.244 1.8844-28.534 1.4358-30.876-0.9058-1.99-1.99-0.05-2.3398 23.6-4.2545 22.29-1.8047 27.474-2.4367 57.057-6.956 12.381-1.8915 26.899-3.9917 32.262-4.6672 6.8187-0.85889 9.75-1.6271 9.75-2.5553 0-1.8792-1.8363-1.7391-28.079 2.1419-63.899 9.45-100.16 12.785-105.19 9.6743-5.7942-3.581-8.4087-0.91772-3.4819 3.547 11.7 10.603 26.837 12.394 78.25 9.2578zm-929.23-5.3879c12.228-10.413 22.337-31.307 27.781-57.42 2.561-12.284 2.5395-12.489-1.5108-14.42-4.2934-2.0474-4.2509-2.1228-5.5819 9.8938-2.5619 23.13-9.664 42.171-21.084 56.526-9.4558 11.886-9.3236 13.698 0.39565 5.4213zm29.557-22.488c6.1002-11.914 8.7395-19.5 11.775-33.847 1.8694-8.8339 1.6563-9.6504-2.8066-10.752-3.1285-0.77245-3.137-0.75107-4.809 12.184-2.1035 16.272-12.5 40.744-22.551 53.083-7.1231 8.7443-5.1222 8.4002 4.0162-0.6907 7.2325-7.195 9.3032-10.073 14.375-19.978zm5.2026 10.763c15.714-21.064 23.875-45.574 16.894-50.735-3.9122-2.8924-3.8448-2.9952-4.9462 7.5318-1.7698 16.916-7.0204 31.016-16.878 45.325-8.9406 12.978-5.102 11.326 4.93-2.1215zm484.62 3.92c-0.34683-2.8875-0.63451-7.1625-0.63929-9.5-0.006-3.1072-0.41201-4.25-1.5087-4.25-1.8201 0-2.0936 9.3224-0.44742 15.25 1.5981 5.7546 3.3455 4.7447 2.5954-1.5zm342.85-6.78c20.773-1.6931 100.95-12.51 122.75-16.561 8.0768-1.5008 8.75-1.8079 8.75-3.9922 0-2.1139-0.268-2.2644-2.5119-1.4113-2.8138 1.0698-80.237 12.33-116.63 16.962-29.947 3.8118-43.3 4.7482-44.314 3.1077-1.1273-1.8239-0.7497-1.9217 9.9849-2.5867 17.586-1.0894 120.85-14.422 147.15-18.998 2.8859-0.50221 3.377-1.1477 5.3237-6.9976 2.7164-8.1629 1.8944-9.5124-2.8043-4.604-4.4014 4.5978-4.6891 4.6712-39.698 10.128-38.09 5.9373-103.96 12.974-121.5 12.98-13.835 0.005-68.31-6.2385-74.158-8.4991-3.7168-1.4366-5.5034-11.264-2.5794-14.188 1.4606-1.4606 2.6368-1.4545 13.917 0.0726 63.961 8.6593 104.67 6.3504 209.82-11.9 10.811-1.8764 15.432-1.8714 17 0.0183 2.3766 2.8636 3.2563 1.6036 2.7917-3.9988-0.5619-6.7756-0.2779-6.5258-6.1678-5.4254-4.5628 0.85243-16.976 2.5006-74.124 9.8418-47.298 6.076-58.303 7.3475-70 8.0879-15.714 0.99478-50.642-0.44547-72-2.969-9.35-1.1047-17.338-2.0148-17.75-2.0225-0.4125-0.008-0.75-0.53138-0.75-1.1637 0-1.1762 3.4447-1.0361 28 1.1382 37.786 3.3459 56.037 2.6279 114-4.485 19.525-2.396 38.425-4.6419 42-4.9908 9.5017-0.9274 53.116-6.431 55.75-7.0348 1.2375-0.28377 2.25-1.1824 2.25-1.9969 0-1.8227 1.5623-1.8776-17.5 0.6156-11.533 1.5084-18.569 1.922-25.203 1.4812-6.9953-0.46481-11.912-0.12746-20.5 1.4065-11.882 2.1223-52.025 7.39-64.797 8.5027-4.125 0.35937-11.55 1.3534-16.5 2.2089-11.148 1.9268-46.14 1.9443-71 0.0355-36.935-2.8359-39.01-1.5156-33.62 21.395 1.1552 4.9102 6.6953 12.75 9.4118 13.319 9.2823 1.9436 35.723 5.7304 46.313 6.6328 15.86 1.3515 16.284 1.4609 14.108 3.6371-1.621 1.621-7.586 1.2161-20.963-1.4228-11.186-2.2066 0.3805 2.5391 13.75 5.6417 4.9061 1.1385 21.708 0.50346 52-1.9654zm-892.93-4.6c7.99-2.63 20.43-16.07 20.43-22.07 0-3.5398-1.2355-2.7732-4.2872 2.6603-10.152 18.076-30.23 19.052-45.751 2.2235-6.64-7.2-15.96-22.83-15.96-26.78 0-0.77-0.45-1.4-1-1.4-1.9523 0-0.92572 4.6369 3.336 15.068 9.0446 22.138 17.884 29.691 37.236 31.814 0.58952 0.0647 3.2895-0.61436 6-1.509zm1071.8-9.37c44.702-9.0122 72.391-17.249 68.446-20.361-0.2159-0.17028-9.3925 2.0968-20.392 5.038-33.99 9.0882-84.776 18.395-87.165 15.973-1.0016-1.0156-0.6447-32.277 0.4408-38.608 0.8912-5.1974 1.5408-5.4385 24.224-8.989 20.169-3.157 47.138-8.6044 67-13.533 10.175-2.525 19.132-4.6881 19.904-4.8068 2.5159-0.38671 3.2099 5.4756 2.5493 21.534-0.6103 14.835 0.2927 20.769 1.9214 12.625 0.803-4.0149 0.818-34.209 0.018-36.293-0.8748-2.2798-6.0486-2.0068-16.758 0.88426-10.11 2.7293-33.465 7.2021-70.635 13.528-35.473 6.0369-32.47 3.1336-34.116 32.988-1.6883 30.617-3.6405 29.74 44.563 20.022zm-523.38 1.25c0.70279-61.869 36.331-108.08 86.48-112.17 53.3-4.3435 97.737 22.511 132.08 79.822 8.2349 13.741 10.705 10.594 3.2801-4.178-18.554-36.914-40.188-60.404-69.482-75.443-6.2925-3.2304-9.438-6.4385-5.3883-5.4955 0.68428 0.15934 6.703 1.1553 13.375 2.2133 36.67 5.8148 52.912 8.4078 69.131 11.036 24.861 4.029 26.72 3.8165 25.728-2.942-0.3879-2.6429-1.0398-3.2327-4.5899-4.1528-2.2757-0.58978-5.7127-1.4978-7.6377-2.0178s-11.6-2.0872-21.5-3.4826-40.275-5.9209-67.5-10.057c-46.385-7.0463-65.955-9.8197-167.5-23.738-64.816-8.8841-67.763-8.9897-65.21-2.3361 0.63194 1.6468-0.38468 1.4944 34.71 5.2033 13.475 1.424 33.725 3.9043 45 5.5118 11.275 1.6074 31.525 4.2928 45 5.9675 64.865 8.0617 96 12.647 96 14.139 0 1.3036-1.4769 1.1476-24.864-2.6256-11.89-1.9-41.65-5.96-66.13-8.99-24.475-3.0373-52.375-6.6397-62-8.0052-42.685-6.0558-67-8.23-67-5.991 0 0.825 0.34979 1.5 0.77731 1.5 1.4572 0 47.648 6.0143 76.723 9.9897 15.95 2.1809 43.175 5.5502 60.5 7.4875 36.86 4.1217 39 4.4261 39 5.5478 0 0.46707-1.547 0.59819-3.4377 0.29136-45.045-7.3097-92.742 44.929-97.182 106.43-0.36721 5.0875-0.83397 9.25-1.0372 9.25-1.3005 0-46.537-5.4172-59.111-7.0786-8.3973-1.1096-15.71-1.7443-16.25-1.4104-1.1336 0.70058-1.3385 3.489-0.25637 3.489 3.6331 0 73.255 9.2747 74.774 9.9611 4.0022 1.8081-3.8945 1.0982-40.238-3.6174-19.931-2.586-36.551-4.3888-36.933-4.0061-1.818 1.818 3.1998 2.9695 26.748 6.1385 47.157 6.3461 53.908 6.8184 53.942 3.7739zm173.9-89.892c-3.7544-4.0918-16.486-12.091-23.059-14.487-6.3351-2.3099-7.874-3.5461-5.5326-4.4446 1.9631-0.75331 12.473 4.6325 21.668 11.103 8.6172 6.0646 13.182 10.471 10.849 10.471-0.825 0-2.5909-1.189-3.9243-2.6422zm67.31-15.395c-3.754-1.5081-28.98-5.6714-60.179-9.9318-26.179-3.5749-32.525-4.8944-30.979-6.441 0.2437-0.2437 4.7137 0.23569 9.9333 1.0653 46.802 7.4388 78.91 11.878 81.63 11.287 2.4038-0.52248 3.5144-0.24429 4.7402 1.1874 0.8985 1.0494 3.0311 1.9202 4.8607 1.9847 3.1882 0.11247 3.1719 0.13318-0.7402 0.94237-5.0614 1.0469-6.4603 1.0327-9.2658-0.0944zm-181.78-5.8843c0.86648-1.402 15.22-5.8823 22.549-7.0383 18.236-2.8764 48.155 0.30217 53.179 5.6498 2.4965 2.6574 1.0666 3.1155-3.8636 1.2376-17.635-6.7171-43.46-7.2707-62.617-1.3421-8.5087 2.6332-10.112 2.892-9.247 1.493zm-604.76 108.13c9.9218-5.3062 16.319-14.962 21.472-32.406 6.3385-21.461-1.0885-62.558-14.534-80.423-32.749-43.513-71.332 7.311-54.159 71.342 8.3371 31.086 30.409 50.478 47.221 41.487zm-11.709-5.1275c-26.743-5.2449-41.812-75.377-22.316-103.86 7.8513-11.47 15.734-14.726 25.449-10.512 5.7413 2.4899 8.6421 6.3575 3.632 4.8424-1.2375-0.37423-4.275-0.93392-6.75-1.2438-2.475-0.30984-5.2893-1.2525-6.2541-2.0949-2.1524-1.8794-6.7459-0.24144-6.7459 2.4054 0 2.0898-6.6895 10.947-9.8141 12.994-1.8755 1.2289-2.2833 2.269-2.0429 5.2108 0.31967 3.9112-1.7809 13.886-3.3389 15.856-1.3931 1.7611-1.275 6.5739 0.22981 9.3617 1.2269 2.273 1.4547 1.6582 3.0344-8.1885 3.77-23.44 10.99-32.57 24.94-31.56l7.5 0.54622 5.8639 6.3262c6.8047 7.3412 7.3322 8.4787 9.1738 19.784 1.1841 7.2688 1.8149 8.866 4.4883 11.365 5.1862 4.847 6.306 10.195 3.2497 15.52-1.6324 2.8443-1.6324 3.106 0 4.9098 2.8841 3.1869 1.4844 14.163-2.059 16.146-1.3185 0.73787-1.7134 2.3863-1.7434 7.2777-0.028 4.558-0.66356 7.5104-2.2764 10.574-2.1849 4.1499-5.1969 5.7438-5.1969 2.75 0-2.5007-2.4194-1.6942-6 2-6.1043 6.298-16.212 3.9283-23.39-5.4837-2.1-2.75-4.23-5.01-4.72-5.01-1.4434 0-1.021 2.7367 0.51326 3.3254 0.77314 0.29668 1.7141 1.9436 2.0911 3.6599 0.5702 2.5961 1.6306 3.5385 6.3103 5.6081 3.0937 1.3682 6.3831 3.1738 7.3098 4.0124 1.8417 1.6667 7.4289 0.71101 13.163-2.2514 3.3213-1.716 5.4197-0.90159 3.5334 1.3714-1.6866 2.0322-9.3922 5.3055-12.146 5.1593-1.1919-0.0632-3.749-0.42524-5.6823-0.80442zm11.05-11.33c17.055-8.6134 19.073-51.89 3.8243-82.005-3.9989-7.8977-19.586-14.415-23.976-10.024-1.5838 1.5838-0.17772 3.2794 2.7194 3.2794 4.292 0 9.9139 3.6722 14.059 9.1834 4.383 5.8275 6.1943 10.358 3.7691 9.427-1.8647-0.71556-1.8514-0.60472 1.0904 9.0398 2.6221 8.5966 4.8144 11.983 3.981 6.1496-0.41003-2.8701-0.35596-2.9742 0.41538-0.79971 7.6296 21.509-4.1241 52.831-19.164 51.068-6.7338-0.78915-7.4294 0.34067-2.6733 4.3426 3.9455 3.3199 9.8056 3.4444 15.954 0.33889zm-27.554-12.856c-0.78603-3.5788-5.5583-13.146-6.2249-12.48-1.0347 1.0347 1.9956 11.22 3.9603 13.311 2.7991 2.9795 3.0791 2.8768 2.2646-0.83142zm18.296-12.821c7.7386-7.7386 7.3813-27.67-0.70369-39.254-4.256-6.0978-11.35-6.1174-14.424-0.0399-9.4574 18.695 3.1026 51.319 15.128 39.294zm-8.91-3.32c-8.7695-8.1418-2.3503-18.502 6.5966-10.646 4.1905 3.6793 4.4956 6.5677 1.0826 10.25-2.9962 3.233-4.5379 3.3125-7.6792 0.39602zm7.8355-13.808c-1.8505-2.5744-3.2849-6.4745-4.2648-11.596-2.1721-11.352-3.0612-11.521-3.7264-0.70873-0.39947 6.4933-2.6454 12.22-4.8357 12.331-1.4105 0.0712-1.5688-10.591-0.21429-14.43 5.1838-14.693 13.853-9.0591 15.913 10.34 0.25561 2.408 0.65096 4.6795 0.87854 5.0478 1.8608 3.0108-1.5155 2.1252-3.7502-0.98369zm-24.171 8.4299c-0.90118-6.0095-1.5284-7.539-2.9063-7.0873-1.7987 0.58964-1.8866 5.312-0.16113 8.6488 2.407 4.6546 3.8866 3.9014 3.0674-1.5614zm47.88-34.864c-1.65-2.51-1.36-5.51 0.54-5.51 0.81369 0 4.0448 6.0888 4.0448 7.6221 0 1.4245-3.2496-0.0735-4.5869-2.1144zm-6.67-17.42c-3.55-4.78-4.75-8.09-2.92-8.09 1.602 0 7.3034 9.0363 6.9879 11.075-0.26398 1.706-0.9595 1.196-4.0684-2.9828zm1053.4 99.339c32.881-5.9604 78.567-17.575 80.326-20.422 1.0372-1.6781 2.5457-34.37 1.6283-35.287-0.499-0.49897-4.7501 0.42433-9.9039 2.151-15.843 5.3079-43.496 11.214-78.123 16.685-12.302 1.9438-17.906 3.2521-19.116 4.4621-1.649 1.649-3.6319 33.828-2.2369 36.3 0.5273 0.93439 1.8508 0.74669 27.425-3.8892zm-198.53 0.53182c0.5703-0.57025 7.7478-1.4709 15.95-2.0014 29.607-1.9151 72.833-7.4141 121.6-15.47 11.628-1.9206 21.517-3.4921 21.976-3.4921 0.4592 0 0.8349-0.71075 0.8349-1.5795 0-1.1906-0.6771-1.4432-2.75-1.0258-38.113 7.6725-154.76 21.857-152.73 18.572 0.3513-0.56834 2.2429-0.90584 4.2037-0.75 1.9607 0.15584 3.7257-0.1691 3.9222-0.7221 0.2286-0.64373-5.7595-1.0753-16.645-1.1997-16.696-0.19076-20.504 0.54817-13.752 2.6685 4.2248 1.3266-0.179 0.88-30.25-3.0678-12.375-1.6246-24.638-3.2284-27.25-3.564-3.9109-0.50237-4.75-0.33247-4.75 0.96175 0 2.2261 0.17829 2.2581 34.5 6.2056 17.05 1.961 32.8 3.9492 35 4.4182 5.7278 1.2212 8.947 1.2358 10.137 0.046zm-398.88-3.71c-0.22711-1.1989-1.4311-1.8377-3.8233-2.0286-3.6053-0.28766-25.53-3.0393-65.492-8.2193-12.65-1.6398-47.75-6.5693-78-10.954-137.55-19.94-150.5-21.64-150.5-19.67 0 1.7702 141.94 22.68 255.5 37.639 17.05 2.2459 31.45 4.2511 32 4.456 3.4698 1.2927 10.631 0.44606 10.315-1.2196zm0.68-5.25c0-1.1178-1.7835-1.6944-7-2.263-14.376-1.5669-113.13-15.112-173.5-23.797-34.375-4.9452-73.975-10.566-88-12.49-14.025-1.9242-26.4-3.694-27.5-3.9328-1.9479-0.4229-7.5639-25.514-7.5154-33.577 0.0162-2.6934-2.406-6.8531-3.4074-5.8516-0.5403 0.5403 2.3418 21.711 4.5482 33.411 1.5959 8.4618 2.5152 9.0448 17.875 11.336 7.425 1.1078 22.725 3.3917 34 5.0753 25.201 3.7631 60.335 8.7434 134.5 19.066 115.91 16.132 116 16.142 116 13.023zm5.3728-19.073c1.7321-23.226 1.1616-27.307-3.8728-27.702-3.863-0.303-51.921-6.1324-101.5-12.312-17.6-2.1936-39.2-5.0721-48-6.3967s-26.8-3.7958-40-5.4917c-13.2-1.6958-44.629-5.8038-69.842-9.1289-25.213-3.325-46.081-5.8064-46.374-5.5141-2.7495 2.7495 1.1962 3.7326 26.716 6.6561 5.225 0.59859 36.275 4.8695 69 9.4909 56.609 7.9942 153.48 20.938 176 23.517 5.775 0.66135 11.262 1.3407 12.194 1.5098 0.93188 0.16902 4.7569 0.61281 8.5 0.9862s8.6057 0.97998 10.806 1.348l4 0.66908v10.47c0 5.7586-0.37716 15.133-0.83813 20.833-0.68614 8.4834-0.59546 10.282 0.5 9.9174 0.98332-0.32726 1.7021-5.3261 2.7109-18.853zm-334.37 0.0708c0.98484-1.5935-3.5363-2.8086-16.718-4.4932-35.937-4.5927-42.611-7.1591-45.023-17.313-0.68-2.85-1.75-5.19-2.39-5.19-1.3886 0-2.8279 5.0598-1.6798 5.9051 0.44439 0.32717 1.933 2.8119 3.308 5.5216 3.3814 6.6638 8.6188 8.5126 36.694 12.953 25.029 3.9587 24.982 3.9539 25.807 2.6182zm1025.7-7.5705c20.985-6.4945 36.735-13.768 38.58-17.818 1.6556-3.6337 0.8046-4.7876-2.5533-3.4622-1.493 0.58934-12.39 4.3996-24.215 8.4673l-21.5 7.3957-0.3075 3.9945c-0.3638 4.726-0.5802 4.6952 9.9958 1.4222zm-613.2-9.31c0-2.3257 1.5221-2.095-40.5-6.1381-17.05-1.6405-31.961-3.2037-33.136-3.4738-1.536-0.35319-2.2824 0.0691-2.6575 1.5034-0.65509 2.5051 0.41278 2.7422 24.793 5.5041 2.75 0.31154 8.15 1.0196 12 1.5735 23.108 3.3245 39.5 3.7523 39.5 1.0309zm442.26-1.1632c-0.2045-2.1201-0.094-2.2178 0.7997-0.70901 1.4044 2.3701 3.8199 2.2624 28.438-1.2683 11.55-1.6565 22.8-3.2441 25-3.528 2.2-0.28388 5.125-0.7147 6.5-0.95739s5.2-0.7111 8.5-1.0409c19.182-1.9172 47.594-9.3318 64.75-16.898 1.2608-0.55604 1.75-0.32257 1.75 0.83523 0 2.0309-0.8456 2.1186 12.842-1.3331 16.71-4.2139 44.431-13.712 45.905-15.728 3.3336-4.559 0.6275-6.6108-4.9292-3.7373-4.7134 2.4374-23.946 8.353-37.126 11.419-8.44 1.9636-12.535 3.4232-14.355 5.1168l-2.5463 2.3695 1.7244-4c8.1524-18.912 11.29-64.731 5.4796-80.014-2.8945-7.6131-2.6202-7.8354 14.755-11.96 8.6625-2.0564 19.918-5.041 25.012-6.6324s9.8834-2.8935 10.643-2.8935c1.3888 0 2.8571-2.4045 1.9949-3.2668-0.2543-0.25427-3.4597 0.62566-7.1231 1.9554s-14.199 3.9704-23.413 5.8682c-17.553 3.6155-21.89 4.8678-22.984 6.6379-0.3817 0.6176-0.9605 0.12606-1.3697-1.1632-1.0503-3.3092-0.852-3.3933 23.412-9.9324 25.99-7.0042 24.902-6.3737 21.501-12.458-3.4999-6.262-22.196-14.2-38.423-16.314-7.939-1.0342 5.7461 5.5428 14.882 7.1524 4.8651 0.85711 14.118 5.4224 14.118 6.9657 0 1.832-22.298 8.4091-37.343 11.015-3.4632 0.59983-3.7822 0.90618-3.2309 3.1028 0.8297 3.3058-0.5842 3.0677-3.2578-0.54853-1.2141-1.6422-3.3104-3.2626-4.6584-3.601-1.7008-0.42689-2.3834-1.2305-2.2305-2.6261 0.386-3.5237-24.024-15.412-35.415-17.249l-3.635-0.58598-0.4089-6.4205c-0.8432-13.242-16.05-16.488-18.406-3.9287-0.3714 1.9798-1.1524 3.3375-1.7871 3.1067-0.6201-0.22544-7.2025-2.0868-14.628-4.1363-7.425-2.0495-18.675-5.2368-25-7.0829-26.261-7.6649-45.854-12.768-69-17.972-13.475-3.0295-25.512-5.7881-26.75-6.1302-1.5887-0.43923-2.25-0.19369-2.25 0.83544 0 0.95862 1.9681 1.8976 5.75 2.7432 13.847 3.0961 110.69 30.497 123.66 34.987 3.2486 1.125 6.6785 2.0455 7.6221 2.0455 1.2295 0 1.8977 1.138 2.3578 4.0157 1.4644 9.1576 8.2684 12.565 13.882 6.9512l4.0331-4.0331 7.0367 2.3456c10.261 3.4204 9.8117 4.7206-1.6324 4.7206-10.293 0-14.223 1.6859-10.418 4.4685 3.7325 2.7292 1.0982 4.5423-5.4696 3.7646-3.9055-0.46246-6.2935-3.2331-2.7867-3.2331 1.1597 0 1.9686-0.6754 1.9686-1.6438 0-2.7799-13.31-0.94004-36.57 5.055-18.653 4.8077-26.02 7.1249-37.164 11.69-2.8508 1.1679-3.3839 1.1222-4.5-0.38575-0.7782-1.0514-4.7345-2.4635-10.266-3.6643-8.9281-1.9381-48.782-9.5911-55.5-10.657-7.0701-1.1222-62.937-11.544-77-14.364-42.3-8.43-168.16-30.01-175.29-30.01-2.8145 0-0.43079 2.9934 2.8373 3.5629 2.0625 0.35945 15 2.8424 28.75 5.5177s48.625 9.1651 77.5 14.422c131.41 23.923 171.58 34.035 183 46.06 1.925 2.0277 4.85 5.0441 6.5 6.7032l3 3.0166 0.5523-4.3911c0.6897-5.4828 3.0875-10.097 6.3614-12.243 5.1174-3.353 4.9008-1.1983-0.4137 4.1162l-4 4v8.0359c0 4.4197-0.2372 8.654-0.5271 9.4095-0.7312 1.9055 5.2587 6.1232 8.6962 6.1232 2.244 0 2.5757 0.2692 1.6726 1.3574-1.1102 1.3377-0.9073 9.0678 0.7945 30.278l0.6795 8.4684-2.5432-1.6664c-3.2582-2.1348-3.8979-1.4068-3.1074 3.5365 0.5051 3.1585 0.3632 3.8285-0.6747 3.187-1.0704-0.66153-1.1922 1.3044-0.6568 10.597 0.3615 6.275 0.6594 15.486 0.6619 20.468 0 9.9428 0.8188 11.925 5.3456 13.018l2.8412 0.68601-0.3412-6.6334c-0.1876-3.6484-0.06-6.6324 0.2839-6.6313 0.9043 0.003 1.875 5.5425 1.875 10.7 0 3.7086 0.291 4.3878 1.75 4.084 1.1809-0.24585 1.6728-1.164 1.5127-2.8233zm3.321-3.8236c-0.2939-0.47555-0.7919-3.513-1.1066-6.75-0.3148-3.237-0.7531-7.0653-0.9741-8.5075-0.4532-2.9574 4.1795-4.3925 15.497-4.8002 3.025-0.109 17.2-2.0145 31.5-4.2344s29.6-4.5862 34-5.2583c4.4-0.67219 8.1329-0.90495 8.2954-0.51725 0.5448 1.2998-2.6736 19.211-3.6225 20.159-2.0877 2.0877-82.53 11.623-83.589 9.9083zm88.462-12.318c0.1747-8.8477 3.5568-19.271 6.4914-20.005 1.6296-0.40775 10.649-2.7823 20.043-5.2768 22.47-5.9665 22.016-6.1691 16.713 7.4605l-2.7068 6.9573-18.043 5.9145c-9.9238 3.253-19.056 6.2188-20.293 6.5907-1.8872 0.56719-2.2426 0.30253-2.2043-1.6411zm-91.3-21.57c-0.2431-5.9125-0.3965-10.835-0.3409-10.939 0.055-0.10402 5.7159-0.66855 12.579-1.2545 17.911-1.5293 34.573-3.721 57.926-7.6192 23.499-3.9226 22.06-4.3532 21.937 6.5628-0.1123 9.9798-0.864 12.429-3.926 12.79-1.3524 0.15956-12.134 1.8336-23.959 3.7202-25.432 4.0573-52.507 7.4897-59.079 7.4897h-4.6939l-0.442-10.75zm95.554-5.8806c0.3515-2.1282 0.6441-7.3569 0.6502-11.619l-0.1-7.75 3.25-0.009c3.3497-0.01 14.323-2.6923 30.519-7.4611 10.82-3.186 12.542-2.9373 11.82 1.7075-0.2789 1.7947-0.7877 6.3146-1.1307 10.044-0.5027 5.4662-1.0439 7.0477-2.7906 8.1547-2.3636 1.498-32.767 9.5248-39.067 10.314l-3.9002 0.48863 0.6392-3.8694zm-96.4-20.75v-11.375l2.75-0.54087c1.5125-0.29747 9.05-1.0681 16.75-1.7125 14.017-1.173 48.964-5.7708 64-8.4201 4.4-0.77526 8.3143-1.1096 8.6985-0.74306 0.7912 0.7549 1.3071 21.994 0.5526 22.749-1.9 1.9-78.9 11.43-92.2 11.43-0.3 0-0.6-5.12-0.6-11.38zm96.991-7.4637c0-3.6637-0.2774-8.9113-0.6059-11.661l-0.5972-5 20.356-4.8583c11.196-2.6721 21.304-5.0748 22.463-5.3393 2.4695-0.56362 3.1071 1.6036 4.0705 13.836 0.5446 6.9146 0.4226 7.6911-1.288 8.1952-5.7256 1.6873-32.796 8.8211-38.14 10.051l-6.25 1.4383-0.01-6.6613zm-97.049-8.3054c-0.032-0.19574-0.2424-2.3809-0.4685-4.8559s-0.6717-6.775-0.9903-9.5555c-0.7072-6.1738 0.3208-6.9155 11.516-8.3085 4.125-0.51323 11.775-1.645 17-2.5151 5.225-0.87006 20.075-3.1914 33-5.1585s24.428-3.8034 25.562-4.0806c2.8283-0.69148 4.1171 2.4776 5.5492 13.644 1.4071 10.972 5.0638 9.049-25.611 13.469-38.638 5.5673-65.363 8.5681-65.557 7.3611zm-9.5469-15.415c-3.5217-14.032 10.376-25.112 37.296-29.736 6.4643-1.1103-0.9563 2.5767-10.832 5.3822-20.509 5.826-24.028 8.8677-24.25 20.958-0.1141 6.2212-1.1177 7.7609-2.2134 3.3954zm105.74 0.80951c-1.6567-3.0997-4.4807-19.304-3.5299-20.255 0.4949-0.49491 4.2737-1.408 8.3973-2.0291 6.3628-0.95836 29.128-5.9673 34.033-7.4882 0.9453-0.29308 1.6018 0.19646 1.7076 1.2732 0.094 0.96216 0.8859 5.7569 1.7586 10.655 1.8353 10.3 1.9427 10.102-6.539 12.062-3.5546 0.82163-12.235 2.8524-19.29 4.5129-15.009 3.5327-15.316 3.5562-16.538 1.269zm-101.2-6.08c0-2.0568 1.2913-4.2521 3.057-5.197 3.0681-1.642 2.996 0.48693-0.116 3.4242-1.6176 1.5267-2.941 2.3244-2.941 1.7728zm20.244-6.8309c-2.4-1.01 0-2.34 4.4-2.34 4.705 0 5.9617 1.3592 2.191 2.3697-2.599 0.6965-4.7217 0.68539-6.5062-0.0341zm66.506-13.657c-3.1964-5.1003-3.4966-8.6926-0.9213-11.023 2.6104-2.3623 4.5307-2.1951 3.2065 0.27927-2.4062 4.496 0.066 10.803 3.7729 9.6266 2.0637-0.65498 3.9747 2.0753 2.4747 3.5356-2.8418 2.7664-5.8109 1.925-8.5328-2.4182zm21.726 0.28314c-1.008-1.6309 1.231-3.6542 2.5662-2.319 0.7232 0.72318 0.5973 1.4118-0.411 2.2486-1.0742 0.89152-1.6364 0.90991-2.1552 0.0705zm-28.382-26.887c-3.51-0.90429-4.9646-3.6328-2.9896-5.6078 1.3057-1.3057 2.0215-1.3659 4.2373-0.35633 3.2615 1.486 4.8856 0.26091 2.2291-1.6815-2.4596-1.7986-1.412-2.9488 1.343-1.4744 4.5823 2.4524 0.3541 10.453-4.8198 9.12zm5.272-11.872c-1.1734-0.93644-2.4313-3.3901-2.7953-5.4526-0.9326-5.2834-2.1921-4.6572-3.0171 1.5l-0.7034 5.25-2.4409-2.8238-2.441-2.8238 2.0851-2.9282c5.6685-7.9606 12.665-4.749 11.764 5.3998-0.3118 3.5115-0.3596 3.5481-2.4514 1.8786zm-908.3 159.8c0-1.1-0.3375-1.9953-0.75-1.9895-0.4125 0.006-19.778-2.7539-43.034-6.1326s-42.569-5.8584-42.917-5.5105c-1.7092 1.7092-0.48461 1.9641 41.701 8.6812 14.025 2.2332 27.3 4.304 29.5 4.6019 2.2 0.29789 5.575 0.90319 7.5 1.3451 6.1903 1.4211 8 1.1959 8-0.99559zm707.5-7.4863c0-5.8586-0.2825-7.0407-1.75-7.3233-1.4976-0.28842-1.75 0.46666-1.75 5.2363v5.5733h-6.8163c-33.55 0-46.198-13.076-39.181-40.509 2.3549-9.2077 2.0997-8.8295 5.1185-7.5852 1.3085 0.53939 5.4167 1.2671 9.1292 1.617 7.2582 0.68423 7.9059 1.3212 4.6521 4.575-1.4186 1.4187-1.9409 2.9191-1.613 4.6344l0.4849 2.5365-7.887-0.65776c-6.4234-0.53569-7.887-0.39669-7.887 0.74902 0 1.6699 2.9988 2.6018 8.5 2.6417 4.5783 0.0331 7.0821 1.2475 6.042 2.9303-0.3928 0.63559-0.2351 1.7329 0.3505 2.4384 2.3721 2.8583-0.8915 7.6296-5.2187 7.6296-3.0272 0-3.7617-0.32865-3.318-1.4848 0.3334-0.86888-0.2324-1.914-1.3641-2.5197-1.4968-0.80106-1.7991-1.7085-1.3378-4.0153 0.5429-2.7145 0.3569-2.9803-2.0864-2.9803-4.3149 0-3.4724 8.2105 0.9325 9.0881 2.8996 0.5777 2.6545 0.93932-1.5 2.2135-2.8446 0.87242 3.9664 2.6984 10.065 2.6984 3.2899 0 5.9349 0.44566 5.9349 1 0 0.55-0.45 1-1 1s-1 0.45-1 1 0.7875 1.0069 1.75 1.0153c3.5906 0.0314 4.7493 1.5934 3.392 4.5724-1.0047 2.2051-0.9938 2.8899 0.057 3.5563 2.2039 1.3979 7.8012 1.0126 7.8012-0.53706 0-0.76616 0.6674-1.6491 1.4831-1.9622 0.844-0.32384 1.2288-1.2319 0.8931-2.107-0.4509-1.175 0.1237-1.5378 2.435-1.5378 4.9529 0 6.1888 0.90821 6.1888 4.548 0 1.8337 0.45 3.6121 1 3.952 1.076 0.66498 1.3664-5.5343 0.4237-9.0434-0.4961-1.8469-1.1681-2.004-6.9863-1.6335-10.46 0.66606-9.0209-2.3395 1.5626-3.2627l8-0.69785 0.1783-7.1813c0.2005-8.0784 0.1864-8.357-0.7569-14.931-0.782-5.4507-2.8553-6.3305-3.799-1.6121-0.4673 2.3366-0.18 3.4776 1.125 4.4682 1.5073 1.1441 0.6677 1.3348-5.9974 1.3621-4.5212 0.0185-7.75-0.38482-7.75-0.9682 0-0.55 0.45-1 1-1s1-0.91412 1-2.0314 0.5625-2.1991 1.25-2.4041c5.1838-1.5455 5.3726-1.7543 2.5-2.7643-3.6654-1.2888-3.4941-2.8002 0.3174-2.8002 2.6123 0 2.9732-0.29672 2.4326-2-0.5647-1.7792-0.1797-2 3.4874-2h4.1222l-0.3048-4.741c-0.2394-3.7232-0.7121-4.8184-2.2021-5.1017-1.6516-0.31396-1.8238 0.0928-1.3294 3.1392 0.5315 3.2758 0.3781 3.5277-2.3967 3.935-3.6089 0.52967-4.6225-0.74969-2.4746-3.1232 2.2043-2.4357 2.0091-3.1082-0.902-3.1082-3.022 0-3.3909-2.5824-0.5-3.5 6.8578-2.1766-1.6301-11.143-8.8206-9.3176-5.4901 1.3935-5.3281 2.8176 0.3206 2.8176 7.1193 0 5.9919 2.6305-1.5 3.5-5.5252 0.64127-8.5431 2.5-4.059 2.5 1.0675 0 2.2089 0.43359 2.5365 0.96353 0.7608 1.2311-3 5.0365-4.9775 5.0365-2.5782 0-1.6398 3.0134 1.4937 4.7965 5.7403 3.2664 0.5544 4.3722-9.9445 2.1206-5.0926-1.0922-6.8875-2.6435-2.8885-2.4965 1.5329 0.0563 2.3761-0.7075 2.9024-2.6292 0.408-1.4898 1.7919-4.1834 3.0754-5.9858 1.2834-1.8025 2.1833-4.1836 1.9997-5.2914s-0.01-1.6925 0.3955-1.2994c1.0166 0.99647 4.4663-1.0036 4.4663-2.5895 0-2.2281 5.0989-3.8 15.5-4.7785 5.5-0.51742 16.075-1.5969 23.5-2.3989 16.174-1.747 39.009-3.7592 67.5-5.9481 23.265-1.7874 24.5-1.9946 24.5-4.1089 0-1.7093-4.725-1.473-32 1.6007-9.075 1.0227-20.775 2.1368-26 2.4758-5.225 0.33902-19.625 1.7219-32 3.0732-12.375 1.3512-26.402 2.8816-31.17 3.4009-16.806 1.83-23.779 8.3938-30.371 28.588-12.036 36.87 3.3068 53.873 47.041 52.13l4-0.15938v-6.9863zm-24.75-14.221c-4.5-0.68-3.2-2.29 1.7-2.29 2.475 0 4.5-0.45 4.5-1s0.8795-1 1.9545-1c1.8283 0 1.8031-0.1515-0.3908-2.3454-4.258-4.258-2.5574-7.2258 3.9067-6.8176l5.3361 0.33694 0.441 4.1631c0.557 5.2583 0.3107 5.6631-3.4463 5.6631-1.6944 0-3.5803 0.63292-4.191 1.4065-1.2809 1.6227-5.8762 2.5016-9.8602 1.8858zm81.998 15.878c42.508-5.3008 50.064-6.6908 47.936-8.8186-0.375-0.37504-16.545 1.4493-35.933 4.0542-19.388 2.6048-41.966 5.4971-50.172 6.4274-9.6725 1.0964-15.066 2.1267-15.333 2.9292-0.6592 1.9774 4.0867 1.5701 53.502-4.5921zm-764.37 2.0322c1.4681-2.3754-3.104-3.488-31.426-7.6474-49.454-7.2628-51.327-7.5442-54.199-8.1417-2.2183-0.46146-2.75-0.21294-2.75 1.2853 0 1.6129 1.6128 2.0894 12.25 3.62 6.7375 0.96941 17.875 2.6602 24.75 3.7574 54.198 8.6491 50.731 8.1682 51.375 7.1264zm1008.1-5.2346c22.438-6.7718 42.603-14.301 43.739-16.331 1.2001-2.1445-1.9804-2.2576-4.7423-0.16857-3.7317 2.8225-6.9185 1.9672-7.1156-1.9098-0.1534-3.0166 0.1697-3.5083 2.6664-4.0566 9.0254-1.9823 1.6244-10.182-10.154-11.25-5.7138-0.51811-5.8379-0.47576-5.8379 1.9925 0 4.0353-35.532 16.347-63 21.829-8.9719 1.7906-19 4.9412-19 5.9694 0 1.4521 1.369 1.2254 16.5-2.7328 18.519-4.8444 23.467-4.9572 25.5-0.58114 2.0704 4.4559 16.407 1.084 43.825-10.308l3.3252-1.3815-0.6544 2.9794c-0.565 2.5725-0.4046 2.9001 1.1749 2.3987 1.7006-0.53985 1.7102-0.48222 0.1358 0.8198-0.9313 0.77025-11.506 4.455-23.5 8.1884s-22.195 7.1507-22.67 7.594c-1.1589 1.0826 0.114 2.9998 1.6449 2.4773 0.6699-0.22859 8.8429-2.7168 18.162-5.5294zm-227-3.97c25.868-3.2607 29.5-4.0355 29.5-6.2929 0-1.6329-5.6654-1.0276-58.248 6.2238-20.211 2.7872-37.761 5.0746-39 5.083-2.8098 0.0191-5.1946 1.4601-4.4392 2.6823 0.5671 0.91753 21.872-1.3539 72.187-7.6962zm-85.5 3c0-0.55-0.675-1-1.5-1s-1.5 0.45-1.5 1 0.675 1 1.5 1 1.5-0.45 1.5-1zm-386.34-25.66c-0.36-14.12-0.66-32.79-0.66-41.5 0-14.09-0.18-15.84-1.66-15.84-1.523 0-1.6059 2.2515-1 27.162 0.36337 14.939 0.66067 33.614 0.66067 41.5 0 12.693 0.19043 14.338 1.6603 14.338 1.5211 0 1.605-2.1515 1-25.662zm427.34 22.17c20.728-2.333 62.916-7.737 70.88-9.0792 2.2635-0.38148 3.0484-0.90151 2.3757-1.5742-0.6726-0.67266-7.9008-0.15877-21.88 1.5556-19.118 2.3445-72.49 8.5209-76.626 8.8674-0.9666 0.081-1.75 0.95514-1.75 1.9529 0 1.3541 0.5633 1.6816 2.25 1.3081 1.2375-0.27395 12.375-1.6377 24.75-3.0306zm-66.8-1.01c-0.3566-3.0542-0.7768-3.5191-3.2992-3.65-1.5898-0.0825-3.4156-0.195-4.0573-0.25-2.6956-0.23105-1.6793 2.4325 1.8407 4.8244 5.0669 3.443 6.0073 3.2854 5.5158-0.92444zm96.131-7.9854c23.552-3.033 43.014-5.5146 43.25-5.5146 0.2359 0 0.4289-0.9 0.4289-2 0-2.4481 2.0421-2.5458-20 0.95721-21.708 3.45-60.187 8.6351-71.25 9.6011l-7.75 0.6767v-3.5655c0-3.5364 0.025-3.5569 3.0347-2.5076 1.6691 0.58185 4.1441 0.84584 5.5 0.58665 1.6439-0.31424 2.4653-0.0177 2.4653 0.89006 0 0.74873 0.9 1.3613 2 1.3613 1.5509 0 2-0.66667 2-2.9686 0-2.2279 0.3743-2.825 1.5-2.393 0.825 0.31659 1.5 0.0775 1.5-0.53138 0-0.60885 1.125-1.107 2.5-1.107 2.0627 0 2.5-0.4827 2.5-2.7594 0-3.9332-3.1956-5.7869-5.5297-3.2077-2.5048 2.7677-3.8015 1.3365-1.8233-2.0124 1.4203-2.4044 2.1625-2.7634 4.8212-2.3319 2.3828 0.38667 3.8661-0.099 6.136-2.009 2.4296-2.0443 4.0308-2.5096 8.4982-2.4695 3.0275 0.0272 6.4551-0.25224 7.6169-0.62098s2.3614-0.26755 2.6657 0.22487c0.6375 1.0315-3.6675 5.3874-4.998 5.0572-0.4879-0.12109-2.012 0.28118-3.387 0.89393-1.375 0.61276-4.6647 1.3979-7.3103 1.7448-5.4874 0.71952-7.0741 5.2191-1.6897 4.7916 7.369-0.58515 9.0752-0.55485 9.7545 0.17323 0.41 0.4395 0.183 0.99999-0.5045 1.2455-1.2422 0.44365-1.7517 4.4447-0.6999 5.4965 0.3025 0.30254 2.215 0.1502 4.25-0.33852 2.0349-0.48872 7.0629-1.1468 11.173-1.4624 9.9787-0.76614 9.413 0.26676 8.6617-15.816-1.3892-29.736-2.3015-33.267-7.3033-28.265-1.5873 1.5873-2.3317 0.36305-2.3317-3.8349 0-2.475 0.45-4.5 1-4.5s1 1.0984 1 2.441c0 3.9589 1.6046 3.7934 3.2253-0.33264 2.4228-6.168 1.3162-6.9644-8.9635-6.4506-15.854 0.79229-15.49 0.63379-15.098 6.5592 0.2447 3.7046-0.046 5.2244-1.0654 5.5724-1.0851 0.37045-1.2607-0.22695-0.7772-2.6444 0.9737-4.8684-2.0416-8.9025-3.6587-4.8949-0.3013 0.74674-0.5362 0.54544-0.5834-0.5-0.086-1.9067-2.5661-2.3888-3.6089-0.70144-0.4063 0.65741-1.0811 0.70182-1.809 0.11905-2.0257-1.6218-23.936 0.57107-25.411 2.5433-1.6323 2.1825-1.5767 7.4599 0.3047 28.936 0.855 9.7607 1.2671 19.448 0.9157 21.528-1.5365 9.0945 1.9904 12.354 11.53 10.656 2.475-0.44066 23.77-3.2828 47.321-6.3158zm-8.3-8.13c0-1.0071-0.553-1.383-1.5-1.0196-0.8596 0.32985-1.5 0.0202-1.5-0.72523 0-1.505 7.0806-3.9558 8.1986-2.8378 0.4121 0.41212 0.4235 1.8635 0.025 3.2254-0.8398 2.8722-5.224 4.0112-5.224 1.3572zm-48-6.1555c0-3.3592 0.4073-6.3594 0.9052-6.6671 0.8351-0.51611 0.3147 11.381-0.5405 12.358-0.2006 0.22916-0.3647-2.3318-0.3647-5.691zm5 1.06c0-1.2571 0.45-2.2857 1-2.2857s1-1.0984 1-2.441c0-1.3425 0.3822-2.6772 0.8493-2.9659 1.0279-0.63528 5.1569 3.9191 5.1354 5.6645-0.01 0.85243-0.3005 0.79175-0.9238-0.19331-1.2382-1.9568-4.33 0.5126-3.5841 2.8626 0.3655 1.1517-0.077 1.6445-1.4774 1.6445-1.416 0-1.9994-0.66691-1.9994-2.2857zm-2.315-19.382c-0.6222-2.3792 0.1001-4.9036 1.4029-4.9036 1.1586 0 2.2784 4.5984 1.4472 5.9432-1.0374 1.6785-2.2555 1.2342-2.8501-1.0396zm16.956-1.8225c-0.8525-1.8804-1.303-3.8186-1.001-4.3072 0.8107-1.3118 12.525-0.50912 13.063 0.8951 0.6516 1.6981 15.187 1.5258 17.932-0.21249 2.3215-1.4703 3.3732-1.0118 3.3493 1.4602-0.028 2.9053-1.6724 4.5874-3.2249 3.299-1.5776-1.3093-8.7496 0.19346-9.9336 2.0814-0.4712 0.75133-1.1096 0.71267-2.1232-0.12858-0.7972-0.66162-2.1487-0.93464-3.0033-0.6067-1.1832 0.45402-1.4241 0.10035-1.0101-1.4828 0.385-1.4722 0.072-2.079-1.073-2.079-0.8891 0-1.6166 0.675-1.6166 1.5s-0.45 1.5-1 1.5-1-0.45-1-1-0.675-1-1.5-1-1.5 0.8524-1.5 1.8942c0 3.427-4.5748 2.1227-6.3592-1.8131zm-21.034-7.6629c-2.7123-7.068 1.0783-13.798 5.0063-8.8888 1.8016 2.2517 2.378 2.5471 2.3817 1.2206 0.01-1.9162 1.5155-2.351 2.5201-0.7256 0.8765 1.4182-0.4508 6.9756-1.666 6.9756-0.5456 0-1.667 0.675-2.492 1.5-1.9603 1.9604-4.983 1.9174-5.7501-0.0818zm13.071-1.1682c-2.1186-3.6116 2.9917-9.8082 6.3679-7.7216 0.5247 0.32429 0.954-0.33694 0.954-1.4694s0.45-2.059 1-2.059 1 1.575 1 3.5c0 3.3221-1.3971 4.8088-2.2145 2.3566-0.7144-2.1433-4.7855 0.98609-4.7855 3.6786 0 2.3327-1.3672 3.3424-2.3219 1.7148zm28.854-4.1979c-0.3431-0.5551 0.3872-2.3766 1.6227-4.0478 1.8405-2.4894 2.3999-2.7644 3.0955-1.5214 1.2602 2.2519 3.5489 1.8371 4.0439-0.73292 0.273-1.4177 0.4837-0.88467 0.5695 1.441 0.075 2.03-0.2013 3.8834-0.6138 4.1187-1.9733 1.1253-8.1558 1.6518-8.7178 0.74247zm-15.628-3.1771c1.1069-1.0312 2.2564-1.875 2.5544-1.875s0.5418 0.84375 0.5418 1.875c0 1.344-0.7234 1.875-2.5544 1.875-2.5465 0-2.5482-0.006-0.5418-1.875zm-0.4856 50.518c0.87-0.33384 1.5818-1.282 1.5818-2.107 0-0.92249-0.5775-1.2784-1.5-0.92439-0.9137 0.35062-1.5 0.002-1.5-0.89301 0-0.80774-0.45-1.4686-1-1.4686s-1 0.70532-1 1.5674c0 1.1123-0.5807 1.3831-2 0.93261-1.9658-0.62392-2.8697 1.2969-1.3333 2.8333 0.8325 0.83259 4.6494 0.86632 6.7515 0.0597zm10.433-3.8579c0.2702-1.4028-0.1169-1.6988-1.6855-1.2886-1.315 0.34389-2.2717-0.0482-2.701-1.107-0.8163-2.0134-2.8516 2.4092-2.0591 4.4744 0.7105 1.8513 6.0182 0.13949 6.4456-2.0788zm49.649-4.8572 16-2.1779 0.298-5.6875 0.2981-5.6875-4.0481 0.37053-4.048 0.37054v-3.9331c0-4.3123 0.3976-4.6783 2.6429-2.4331 4.6663 4.6664 5.3429-2.9466 2.6885-30.25-0.6508-6.695-2.7772-8.6052-3.8959-3.5-1.1424 5.2137-1.8527 5.7757-2.2121 1.75-0.1964-2.2-0.8318-4.45-1.4121-5-0.7354-0.69709-0.905 0.42895-0.5597 3.7175 0.4752 4.5248 0.4106 4.6721-1.5803 3.6066-1.5359-0.82198-2.1748-0.81353-2.4568 0.0325-0.6419 1.9257-2.2145 1.2696-2.2145-0.92399 0-1.6123 0.4402-1.9277 2-1.4326 1.6277 0.51661 2 0.1797 2-1.8098 0-2.2765-0.2922-2.4151-4.25-2.0161-2.3375 0.23564-8.3 0.74286-13.25 1.1272l-9 0.69874-0.3075 4.25c-0.3025 4.1813 1.6023 6.0091 3.3371 3.2022 0.3562-0.57632 1.3952-0.9745 2.309-0.88485 0.9138 0.0897 1.8864 0.0778 2.1614-0.0265 0.275-0.1042 1.625-0.37825 3-0.609 1.375-0.23074 3.5125-0.65587 4.75-0.94474 1.5045-0.35119 2.25-0.0655 2.25 0.86218 0 0.86693-1.5296 1.5926-4.0776 1.9343-2.2427 0.30081-4.8656 1.2601-5.8288 2.1317-0.9631 0.87161-2.9926 1.5848-4.5101 1.5848h-2.759l0.7181 12.25c0.3949 6.7375 1.0001 12.364 1.3448 12.502 0.3446 0.13879 0.4611 2.3337 0.2588 4.8775-0.2555 3.212-0.028 4.4154 0.743 3.9386 0.6109-0.37759 1.1108-1.3046 1.1108-2.0601 0-1.3454 0.8026-1.7255 6.1378-2.9063 2.8227-0.62475 3.8304 1.7724 3.0395 7.2302-0.3237 2.2339-0.419 2.259-2.2576 0.59501-1.8421-1.667-1.9211-1.6401-1.9551 0.66771l-0.035 2.405-1.2665-2.2814c-1.2984-2.3387-2.6626-2.0375-2.6626 0.58778 0 0.8102-0.7437 2.0169-1.6528 2.6816-5.1525 3.7676-1.4668 3.9966 19.153 1.1898zm-6.6856-7.4002c-1.0005-1.7025-1.3545-3.4037-0.871-4.186 0.6685-1.0817 0.8967-1.0736 1.2729 0.0452 0.3864 1.1489 0.7197 1.1475 2.1211-0.009 1.4893-1.2294 1.6626-1.0409 1.6626 1.809 0 1.7498-0.4159 2.9244-0.9243 2.6102-0.5084-0.31419-1.0709 0.14205-1.25 1.0139-0.2359 1.1481-0.7904 0.79436-2.0113-1.283zm7.2806-1.5479c-2.1923-5.8181-2.3697-8.9293-0.4886-8.5671 0.9932 0.19129 2.1183 1.4704 2.5001 2.8425 0.6393 2.2977 0.702 2.2381 0.7938-0.75525 0.068-2.228 0.5878-3.25 1.652-3.25 2.7634 0 1.5563 10.057-1.3347 11.12-1.8582 0.68341-2.4386 0.42498-3.1226-1.3903zm-19.257-16.304c-0.4004-5.0346 0.6099-8.0291 1.7269-5.1183 0.5857 1.5264 0.8174 1.5601 1.8038 0.2624 0.7016-0.92312 3.2218-1.5993 6.6317-1.7794 5.0169-0.26492 5.5294-0.51001 5.8347-2.7904 0.7094-5.2992 2.1653-4.2906 2.1653 1.5 0 4.5889-0.2667 5.6333-1.2 4.7-1.8773-1.8774-3.8-1.4106-3.8 0.92244 0 1.7732-0.2468 1.9176-1.5 0.87756-1.775-1.4731-4.028-0.0626-5.0516 3.1626-0.365 1.1501-1.2073 1.7601-2.0067 1.4534-0.7577-0.29076-1.6436-0.0983-1.9687 0.42767-1.2953 2.0958-2.2895 0.73092-2.6354-3.6179zm21.621-5.1757c-1.2734-6.0455-1.3579-5.8366 2.1919-5.4222 2.8641 0.33437 3.3493 0.0854 3.3493-1.7184 0-3.7214 1.7216-2.2519 2.4107 2.0578 0.6461 4.0401-0.5725 6.4689-2.613 5.2078-0.4387-0.27117-0.7977 0.20852-0.7977 1.066 0 2.8432-3.9073 1.8184-4.5412-1.191zm-23.5-4.07c0-2.8333 1.0759-3.2587 6.3965-2.5294 7.0165 0.96172 6.0626 2.3736-2.6465 3.9171-3.3311 0.59036-3.75 0.43534-3.75-1.3877zm16.168-13.805c0.1976-1.0258 0.803-1.7527 1.3455-1.6152 1.4534 0.3684 1.1994 2.5123-0.3592 3.0318-0.8762 0.29207-1.2202-0.20206-0.9863-1.4167zm-119.2 47.64c0-0.55-0.9-1-2-1s-2 0.45-2 1 0.9 1 2 1 2-0.45 2-1zm-8.1431-10.89c0.9374-0.59395 1.1447-1.8259 0.6705-3.9847-1.0951-4.986-3.5274-3.2919-3.5274 2.4569 0 2.5661 0.6606 2.9194 2.8569 1.5278zm341.64-9.2922c10.857-2.86 15.062-4.7566 12.504-5.6386-0.8015-0.27636-19.68 4.5841-36.754 9.463-2.9612 0.84611-5.25 2.0819-5.25 2.8346 0 1.0302 1.995 0.78361 8.75-1.0816 4.8125-1.3289 14.15-3.8387 20.75-5.5773zm-1009.5 5.43c-0.0601-2.9436-3.7044-3.7127-47.797-10.087-36.539-5.2824-46.342-6.4073-47.32-5.4294-2.0072 2.0059-1.701 2.0711 36.733 7.8198 20.295 3.0356 40.725 6.1309 45.4 6.8786 10.226 1.6353 13.005 1.8105 12.985 0.81836zm1000.2-7.25c9.8081-2.75 18.7-5 19.76-5 1.9408 0 3.6867-1.692 2.7315-2.6472-0.7705-0.7705-42.686 10.815-42.686 11.799 0 1.3924 1.5794 1.0678 20.194-4.1515zm-998.2 0.75c-0.00075-1.7875-0.65363-6.9563-1.4508-11.486-0.79721-4.5299-1.7066-13.98-2.0208-21-0.31422-7.0201-0.79838-17.935-1.0759-24.255-0.6-13.8-1.36-19.01-2.74-19.01-2.0083 0 0.80397 54.272 3.8726 74.735 0.7793 5.1968 3.4133 5.9808 3.4112 1.0154zm705 1.64c0-1.0545-0.5438-1.3983-1.5818-1-0.87 0.33385-2.22 0.60699-3 0.60699s-1.4182 0.45-1.4182 1 1.35 1 3 1c2.0888 0 3-0.48811 3-1.607zm296.98-8.5102c22.188-6.3057 22.745-6.4961 21.791-7.4493-0.7342-0.73429-42.872 9.5018-44.517 10.814-5.1115 4.0788-1.6762 3.5702 22.725-3.3646zm-9.3334-1.9547c17.234-4.4646 31.485-8.7889 32.938-9.9942 2.3431-1.9446 3.4584-6.7529 1.9227-8.2886-0.761-0.76096-1.1382-2.322-0.8382-3.469 0.6545-2.5028-4.2886-4.4019-5.6642-2.1762-0.4928 0.79743-1.7367 1.0319-3.3397 0.62958-1.5889-0.39877-2.858-0.16643-3.3574 0.61465-0.4416 0.69067-1.4779 1.2558-2.3029 1.2558s-1.6438 1.0125-1.8196 2.25c-0.1757 1.2375-0.6857 2.25-1.1333 2.25s-1.1225-1.0125-1.4998-2.25c-0.6654-2.1822-0.7278-2.1596-2.0716 0.75-0.762 1.65-1.4058 2.4375-1.4306 1.75-0.082-2.2591-1.8144-1.3052-2.4854 1.368-0.8979 3.5775-2.0597 2.0615-2.0597-2.6875v-3.8986l14.297-4.7488c12.189-4.0485 14.435-4.5301 15.235-3.266 0.6094 0.96384 0.9429-3.4839 0.9529-12.708 0.01-7.805-0.3955-14.445-0.8977-14.755-0.5021-0.31034-1.222-2.3932-1.5996-4.6286-0.3777-2.2354-1.2722-4.289-1.9878-4.5636-0.9538-0.36604-31.892 7.1443-33.194 8.058-0.1071 0.0751 0.2325 1.924 0.7547 4.1085 1.5624 6.536 3.9178 30.347 3.9293 39.722 0.01 4.8125 0.3482 8.7472 0.7607 8.7438 1.0444-0.009 20.359-5.5598 22.5-6.4665 1.9228-0.81439 2.4689 0.91044 0.6451 2.0376-0.6077 0.37556-10.145 3.0268-21.194 5.8916s-20.264 5.7341-20.478 6.3762c-0.5455 1.6364 0.1101 1.5434 13.42-1.9046zm9.1012-35.518c-1.3116-1.3116-0.7934-5.4534 0.7568-6.0482 0.825-0.31659 1.5-1.2025 1.5-1.9686 0-0.76615 0.6199-1.393 1.3776-1.393 0.7576 0 1.9377-0.675 2.6224-1.5 1.8765-2.2611 2.9887-1.8126 3.0997 1.25l0.1 2.75 0.6913-2.5c0.4245-1.5352 1.5438-2.6233 2.9003-2.8196 1.8498-0.26759 2.209-0.9587 2.209-4.25 0-4.7795 1.0982-5.035 2.9248-0.68045l1.3632 3.25 0.606-3.3964c0.5429-3.0426 3.3561-6.2645 4.4254-5.0682 1.8267 2.0436 1.6434 8.1616-0.2595 8.6592-1.1329 0.29627-2.0599 0.98434-2.0599 1.529 0 0.5447-0.6337 0.74717-1.4083 0.44994-0.9051-0.34731-1.6316 0.34941-2.0333 1.9498-0.4725 1.8824-1.087 2.3436-2.5175 1.8896-1.2097-0.38396-2.2353 0.012-2.8429 1.0977-0.5533 0.98878-1.5983 1.4497-2.5011 1.1033-0.8529-0.32728-2.0887 0.0532-2.7462 0.84551-0.6576 0.79231-1.9856 1.4406-2.9512 1.4406-0.9655 0-2.376 0.93444-3.1343 2.0765s-1.7132 1.7421-2.122 1.3333zm-1304 33.99c3.5239-0.71817 10.592-20.27 8.9109-24.65-0.7422-1.9341-8.6214-3.9977-31.234-8.1803-10.45-1.9329-20.073-3.8197-21.384-4.1928-3.3916-0.96524-2.3292 1.5963 1.6182 3.9017 3.7265 2.1764 19.559 5.338 31.543 6.2988 7.9614 0.63835 11.057 1.5707 8.989 2.7073-2.4496 1.3463-46.408-6.8675-47.566-8.8879-1.7479-3.0493-6.1183-1.105-6.8553 3.0499-0.54767 3.0874 6.4708 5.0534 27.155 7.6065 20.373 2.5147 24 3.8719 24 8.9816 0 6.7495-0.50962 6.7784-41.829 2.3716-10.158-1.0834-2.3659 6.9433 8.3561 8.6075 3.8351 0.59524 10.573 1.6618 14.973 2.3702 7.3378 1.1813 17.571 1.1885 23.323 0.0163zm1294.8-3.95c2.9795-3.9485 2.3744-24.367-1.2729-42.954-1.9646-10.011-1.5509-9.6778-9.5999-7.741-7.587 1.8256-8.0794 2.8524-5.5749 11.625 1.7704 6.2014 4.8249 9.1595 4.8249 4.6727 0-2.2619 3.8214-5.2905 5.413-4.29 0.5978 0.37584 1.8745 0.55379 2.837 0.39544 1.4914-0.24536 1.75 0.53399 1.75 5.275 0 3.0596-0.45 5.5629-1 5.5629s-1-1.7734-1-3.941c0-6.3509-1.6744-5.5623-2.57 1.2104l-0.8239 6.2306-0.6459-5c-0.3553-2.75-0.7167-3.7891-0.8031-2.309-0.2035 3.4863-2.0953 4.6141-3.8088 2.2707-1.1498-1.5725-1.3483 0.7471-1.3483 15.759v17.602l6.25-1.4405c3.4375-0.7923 6.7552-2.1101 7.3728-2.9284zm-11.601-7.5293c-0.038-6.1664 6.484-10.25 9.2798-5.8102 0.5589 0.88774 0.6673 2.4627 0.2407 3.5-0.5044 1.2266-0.9379 1.4517-1.2398 0.64391-0.5949-1.5915-4.0589 0.0577-6.5307 3.109-1.7129 2.1147-1.7279 2.1023-1.75-1.4427zm-1.8563-37.063c0.1837-1.2988 0.7841-2.2489 1.3341-2.1114 1.4762 0.36905 1.2155 3.5115-0.3341 4.028-0.9147 0.30489-1.2291-0.29775-1-1.9167zm-274.1 45.14c0-0.55-1.125-1-2.5-1s-2.5 0.45-2.5 1 1.125 1 2.5 1 2.5-0.45 2.5-1zm326.61-5.5827c-1.1176-2.9125-2.6052-1.2706-2.5666 2.8327l0.04 4.25 1.5352-2.8327c0.8444-1.558 1.2905-3.4705 0.9913-4.25zm-326.6-0.57c0-3.0963-1.8846-4.494-4.6361-3.4381-1.5049 0.57748-1.5 0.77827 0.061 2.5033 1.2346 1.3642 1.3597 1.988 0.4591 2.2882-2.0436 0.6812-0.044 2.6494 2.1169 2.0842 1.4219-0.37183 1.999-1.3642 1.999-3.4375zm-1021.2-5.6c-0.2136-1.1263-1.398-1.8409-3.3233-2.0051-1.6453-0.14032-10.779-1.4426-20.298-2.8939-16.225-2.474-21.593-2.4169-18.974 0.20196 3.7977 3.7977 43.25 8.1482 42.595 4.6971zm1350.5-3.91c-0.8115-2.1146-1.3018-1.5769-1.2852 1.4093 0.011 2.0014 0.2582 2.3664 0.9075 1.3407 0.4907-0.77512 0.6606-2.0126 0.3777-2.75zm-1282.3-0.78c0-2.1425-0.18771-2.1933-18.529-5.0159-22.631-3.48-21.97-3.45-21.97-1.04 0 1.7935 1.5484 2.2731 15 4.6453 17.672 3.1165 25.5 3.5505 25.5 1.4137zm941-2.5376c4.125-0.57254 11.1-1.3741 15.5-1.7812 11.197-1.0361 11.198-6.5157 0-14.921-18.338-13.769-94.888-28.441-312.17-59.834-54.343-7.8514-72.102-9.4088-76.475-6.7061-3.28 2.02-3.8 2.22-5.86 2.22-0.5641 0-1 2.8333-1 6.5 0 7.7522-1.7656 8.7564-2.1977 1.25l-0.3-5.25-15.5 0.21c-13.332 0.17848-53.285-1.8225-64-3.2053-1.925-0.24844-7.1-0.71913-11.5-1.046-7.0243-0.52181-42.037-3.5697-56-4.875-2.75-0.25706-8.375-0.7474-12.5-1.0896-4.125-0.34225-8.85-0.79032-10.5-0.99571-1.65-0.2054-6.1186-0.6705-9.9301-1.0336-3.8116-0.36305-7.8616-0.81417-9-1.0025-1.1384-0.18831-7.4699-0.84612-14.07-1.4618-6.6-0.61568-13.125-1.2862-14.5-1.4901-1.375-0.20388-5.425-0.65745-9-1.0079-3.575-0.35049-7.625-0.80049-9-1s-5.425-0.66777-9-1.0406c-3.575-0.37281-15.725-1.6953-27-2.9388-20.669-2.2796-21.943-2.2084-21.985 1.2294-0.01 0.79592 1.4499 1.25 4.018 1.25 2.2183 0 24.606 2.2395 49.75 4.9766 25.144 2.7372 61.242 6.5837 80.217 8.5479s55.425 6.003 81 8.9751 51.45 5.8757 57.5 6.4523c21.582 2.0571 20.5 1.7593 20.5 5.6418 0 4.3583 2.5041 4.4241-40.484-1.0647-19.27-2.46-46.05-5.63-59.53-7.04-13.475-1.4142-35.075-3.8885-48-5.4985s-34.975-4.081-49-5.4911c-24.72-2.4854-52.082-5.4944-63.5-6.9832-1.65-0.21514-7.725-0.88769-13.5-1.4946-14.023-1.4736-19.381-2.1632-20.087-2.5853-0.81334-0.48623-4.913 2.4802-4.913 3.555 0 1.4365 2.4786 1.8182 26 4.0038 43.314 4.0247 267.51 30.017 271.75 31.506 0.9319 0.32698 1.25 4.6454 1.25 16.97 0 14.613 0.18911 16.531 1.6299 16.531 2.0642 0 1.6168-33.084-0.45679-33.776-1.71-0.58-1.43-4.23 0.33-4.23 1.087 0 1.5-1.1177 1.5-4.059 0-2.2325 0.36706-3.8322 0.81568-3.5549 0.44863 0.27727 24.636 3.6966 53.75 7.5985 93.346 12.51 160.23 22.323 204.43 29.992 12.375 2.147 27.9 4.6207 34.5 5.497 33.008 4.3826 64.394 14.481 70.445 22.666 1.9225 2.6004 2.7311 2.9727 5.4078 2.4903 1.731-0.31196 6.5223-1.0356 10.647-1.6082zm343.19-5.8615c0.4843-3.2993 0.025-5.16-1.2731-5.16-0.5042 0-0.9167 1.8-0.9167 4 0 4.582 1.5658 5.4114 2.1898 1.16zm-397.2-1.05c0-2.2201 0.9784-1.9429-23-6.5166-47.96-9.15-170.96-27.76-264.89-40.08-40.04-5.25-38.11-5.13-38.11-2.48 0 2.5974-2.4694 2.0838 33.5 6.968 98.59 13.387 191.6 27.315 277 41.479 7.7 1.2771 14.338 2.3668 14.75 2.4216 0.4125 0.0548 0.75-0.75159 0.75-1.792zm121.25-2.2776 39.75-4.2533v-2.4784c0-3.692-8.9692-11.501-19-16.542-18.511-9.3034-38.726-14.671-100-26.552-17.325-3.3594-46.35-8.9941-64.5-12.521-30.82-5.9898-45.049-8.6486-53.5-9.9965-1.925-0.30705-4.2875-0.79745-5.25-1.0898-2.6615-0.80834-2.1915 2.4857 0.5 3.5042 1.2375 0.46829 24.525 5.214 51.75 10.546 97.681 19.131 140.13 29.715 164.46 41.009 14.371 6.6701 13.41 7.3148-13.46 9.0295-14.234 0.90836-23.041 1.5877-33.356 2.5731-5.4207 0.51783-10.258 0.94151-10.75 0.94151-1.8243 0 1.1747 9.903 3.0412 10.042 0.3106 0.0231 18.452-1.8719 40.315-4.2112zm-453.2-1.33c0-0.825-0.15165-1.5-0.33701-1.5-1.3582 0-57.697-6.6136-76.663-8.9995-19.453-2.4471-85.57-10.309-176-20.927-44.93-5.2758-58.036-6.4376-59.223-5.2505-2.3072 2.3072 0.95524 2.9962 26.723 5.643 55.9 5.7421 144.63 15.771 177 20.006 27.174 3.555 67.49 8.3934 98.5 11.821 8.0285 0.88749 10 0.73114 10-0.79303zm0.42676-6.6536c0.86528-1.7345 1.5732-3.2465 1.5732-3.3601 0-0.11355-2.3625-0.47204-5.25-0.79665-45.976-5.1685-72.488-8.2328-92.25-10.663-69.22-8.51-214.3-24.57-215.07-23.8-0.91 0.91-1.49 5.77-0.69 5.77 4.9022 0 130.27 14.594 231.76 26.979 72.053 8.793 70.723 8.6363 75.177 8.8606 2.6388 0.13294 3.4432-0.37396 4.75-2.9936zm728.11-7.416c-0.3-2.99-1.1-5.43-1.6-5.43-1.001 0-0.199 10.491 0.9519 12.451 1.0541 1.7954 1.4047-1.5925 0.7266-7.0203zm-2.3506-12.646c-1.6836-1.6837-2.3837-0.42779-1.5695 2.816 0.7036 2.8035 0.7232 2.8102 1.716 0.58537 0.7048-1.5796 0.6612-2.5937-0.1465-3.4013zm-1377.7-0.64c0.56578-0.91545-2.5559-13.25-4.8479-19.155-0.75098-1.9349-1.686-6.0839-2.0779-9.2201-0.39184-3.1362-1.3373-6.2207-2.101-6.8545-0.763-0.64-1.388-2.45-1.388-4.03 0-2.21-0.463-2.88-2-2.88-1.5431 0-2 0.66667-2 2.9182 0 3.732 0.95587 6.2271 2.1118 5.5127 1.7051-1.0538 2.1299 2.6445 0.50943 4.4351-2.865 3.16-1.1803 10.13 2.45 10.13 1.7877 0 0.90902 1.7718-1.145 2.309-3.3497 0.87596-2.2888 6.0918 1.3236 6.5074 1.6743 0.19265 2.75 0.91962 2.75 1.8584 0 1.1454-0.64291 1.3806-2.5 0.91453-2.0105-0.5046-2.5-0.25495-2.5 1.275 0 1.9505 2.3586 3.029 7 3.201l2.5 0.0926-2.7562 1.0065c-1.5159 0.55355-2.5019 1.418-2.191 1.921 0.71696 1.1601 6.1522 1.201 6.8625 0.0517zm336.58-8.06c0-3.15-1.4-4.08-6.14-4.08-2.7116 0-17.626-1.558-33.143-3.4622-69.968-8.5862-307.99-33.165-309.54-31.965-2.9778 2.3006 7.74 6.7105 16.214 6.6714 4.2-0.0194 135.84 12.812 176.62 17.216 12.375 1.3364 32.85 3.3746 45.5 4.5292 12.65 1.1547 29.975 2.9694 38.5 4.0327s25.85 3.0506 38.5 4.4162 24.575 2.6536 26.5 2.8622c6.5702 0.71196 7 0.69853 7-0.21887zm1.3818-8.151c2.263-3.831 3.0146-3.4447-9.3818-4.8218-5.775-0.64153-11.85-1.3407-13.5-1.5537-1.65-0.21301-5.7-0.66668-9-1.0081-3.3-0.34146-26.25-2.8422-51-5.5572s-58.5-6.3151-75-8.0001-31.125-3.251-32.5-3.48c-9.28-1.55-86.06-8.68-124-11.52-15.125-1.13-28.501-2.27-29.725-2.53-2.841-0.62-10.275 1.67-10.275 3.16 0 1.6348 3.9234 2.2435 28.5 4.422 12.1 1.0725 23.575 2.1691 25.5 2.4368 5.1286 0.71317 50.086 5.1778 75.5 7.4978 24.629 2.2483 133.95 14.193 183 19.995 41.029 4.8532 39.602 4.8205 41.882 0.96093zm6.073-8.6808c0.61619-5.0699 3.4685-15.676 5.6371-20.962 1.648-4.0168 0.4437-5.4776-1.8649-2.262-4.344 6.0506-8.8908 24.977-6.5603 27.307 1.5029 1.503 2.2404 0.42287 2.7881-4.0833zm50.572 2.282c-0.67009-0.80742-1.5127-1.4291-1.8724-1.3816-3.1 0.40973-4.5724-2.3922-1.8134-3.4509 1.7231-0.66123 3.0642 0.23887 4.5448 3.0505 1.4544 2.7618 3.6957 2.9011 5.0793 0.31574 3.9341-7.351-0.96161-9.432-29.465-12.524-15.493-1.6809-16.993-0.61448-15.634 11.118 0.22483 1.9414 14.375 3.7805 32.007 4.1601 7.2599 0.1563 8.2106-0.0148 7.1541-1.2878zm-33.987-3.9839c-4.0343-4.8611 2.7635-6.7969 14.395-4.0993 3.679 0.85321 7.8826 1.5513 9.3413 1.5513 2.4786 0 2.5428 0.10944 0.98056 1.6717-1.4532 1.4532-2.5594 1.5368-8.4643 0.63978-5.4931-0.83448-6.9456-0.77167-7.5923 0.32832-1.0623 1.807-7.1381 1.7426-8.6604-0.0917zm-7.53-5.12c0-3.9813-0.34893-4.9702-1.8562-5.2604-4.0457-0.77912-6.2972 8.2365-2.4418 9.7776 3.6156 1.4452 4.298 0.728 4.298-4.5172zm298.38-13.05c11.485-2.297 3.0868-3.875-20.624-3.875-31.442 0-66.861-1.9868-107.25-6.0159-2.475-0.2469-9.675-0.91936-16-1.4944-6.325-0.57499-15.325-1.4706-20-1.9902-4.675-0.51961-11.425-1.2298-15-1.5783-3.575-0.34845-7.175-0.75834-8-0.91087s-4.425-0.57632-8-0.94175-9.65-1.103-13.5-1.639c-6.3369-0.88224-55.959-6.9059-69.567-8.4448-5.5127-0.6234-9.8399 1.2183-6.9945 2.9769 3.7691 2.3294 155.59 17.714 217.06 21.995 33.535 2.3356 61.795 3.1343 67.875 1.9184zm12.165-3.4501c1.24-2.31-0.24-5.69-12.62-28.93-3.67-6.88-18.59-36.34-33.16-65.47-31.86-63.718-34.59-67.601-49.26-69.944-46.77-7.474-87.5-10.772-156-12.631-21.72-0.589-40.18-1.153-41-1.252-32.84-3.954-65.31 21.985-108.02 86.297-31.555 47.511-29.143 54.152 22.519 61.986 56.271 8.5325 78.481 10.454 78.532 6.7957 0.05-3.56 4.35-7.78 7.92-7.78 2.3 0 3.05-0.45 3.05-1.86 0-1.666-1.9653-2.0824-19.25-4.0781-29.38-3.3924-66.664-8.8226-72.25-10.523-5.4135-1.6477-10.5-2.0154-10.5-0.75911 0 2.0595 6.6968 4.2046 19 6.0858 37.67 5.7601 67.693 9.8864 74.163 10.193 0.73526 0.0349 0.32055 0.47176-0.92157 0.97088-2.7006 1.0852-7.5063 0.52613-52.668-6.127-44.57-6.56-51.57-8.58-51.57-14.87 0-10.89 31.93-59.208 56.28-85.169 28.34-30.216 24.52-29.03 87.72-27.209 108.66 3.1305 157.95 9.1851 167.15 20.535 3.6137 4.4552 39.723 87.527 47.461 109.19 0.76113 2.1305 3.4766 8.7756 6.0345 14.767 5.6236 13.172 6.3219 12.398-10.996 12.186-41.516-0.5084-95.033-4.8297-165.15-13.336-64.075-7.7726-78.205-8.9236-79.155-6.448-0.86657 2.2582-1.7808 2.0725 24.155 4.9083 13.2 1.4433 38.85 4.3834 57 6.5336 40.338 4.7787 79.972 8.4901 112.5 10.534 13.475 0.84689 30.35 1.9754 37.5 2.5077 14.422 1.0738 46.449 1.3133 48.918 0.36581 3.0404-1.1667 1.9604-4.7159-1.1682-3.8393-9.7149 2.7222-14.116 0.5107-17.022-8.5537-2.1086-6.5772-15.379-38.323-30.934-74-11.9-27.298-18.08-41.521-21.08-48.5-7.25-16.847-9-17.639-49.71-22.442-79.46-9.378-170.58-12.269-185.79-5.895-21.026 8.8126-54.949 49.311-82.037 97.939-15.167 27.227-13.431 28.038 85.617 39.975 5.3836 0.64881 9.5825 1.3855 9.3309 1.6372-1.473 1.473-48.017-4.4119-82.119-10.383-25.52-4.47-27.44-7.38-18.34-27.83 14.25-32.01 64.39-93.761 83.92-103.36 17.34-8.53 160.85-2.303 222.92 9.667 14.738 2.8423 18.191 7.3231 40.197 52.156 16.958 34.548 49.105 99.318 52.257 105.29 1.7341 3.2836 5.0097 3.6193 6.5855 0.67492zm65.96-2.8c5.225-1.0982 14-2.3073 19.5-2.6869 5.5-0.37963 10.675-1.2486 11.5-1.931 0.825-0.68242 4.2888-1.5166 7.6973-1.8537 3.4085-0.33714 20.059-3.1085 37-6.1586s35.01-5.9858 40.153-6.5238c10.17-1.07 11.15-1.38 11.15-3.54 0-1.01-1.18-1.44-4-1.44-6.5173 0-4.5618-1.5877 3.1775-2.5799 4.1422-0.53102 7.3491-1.4488 7.5833-2.1701 0.59213-1.8236-3.1332-1.5657-12.82 0.88746-7.1334 1.8065-9.1007 1.9613-12.705 1-6.6889-1.7842-13.091-0.82975-7.9856 1.1905 0.6875 0.27206-1.1125 0.24688-4-0.056-3.6044-0.37802-5.25-0.19076-5.25 0.59741 0 0.80884-1.6989 0.94952-5.75 0.47614-5.2849-0.61754-5.639-0.53737-4.3776 0.99127 0.75485 0.91473 2.2431 1.6632 3.3072 1.6632 3.2669 0 10.824 2.1858 10.328 2.9874-0.25706 0.41593-5.1848-0.40278-10.95-1.8194-10.438-2.5644-13.652-2.4645-9.9843 0.31048 1.0598 0.80182 1.3911 1.4722 0.73602 1.4897-0.65504 0.0175-1.453-0.3922-1.7733-0.91042-0.72709-1.1765-9.3857-2.5412-10.303-1.6239-0.37116 0.37117-0.0129 1.1109 0.7962 1.6439 0.9884 0.65114-0.25146 0.75508-3.779 0.3168-4.9706-0.61759-7.2001 0.51449-4 2.0311 1.5087 0.715-4.8313-0.0802-8-1.0034-1.6758-0.48826-2.25-0.243-2.25 0.96108 0 1.6433-3.4568 2.3046-4.365 0.83513-0.71-1.14-6.64-1.42-6.64-0.32 0 0.51291 0.5625 1.1712 1.25 1.4628 0.6875 0.29165-0.70836 0.2643-3.1019-0.0608-2.9258-0.39735-4.6009-0.18819-5.1117 0.63826-0.57373 0.92831-1.6888 0.97277-4.5542 0.1816-2.087-0.57624-4.1742-0.81302-4.6383-0.52618-1.865 1.1527-0.62712 2.38 3.4062 3.3769 8.4046 2.0775 11.938 3.1722 11.536 3.5741-0.22494 0.22494-4.5762-0.70625-9.6695-2.0693-9.78-2.62-15.12-3.14-15.12-1.48 0 0.55 0.64844 1 1.441 1 0.79254 0 1.7072 0.43082 2.0327 0.95738 0.32543 0.52656-1.9685 0.0766-5.0975-1-6.78-2.33-7.38-2.38-7.38-0.57 0 0.88937 2.4479 1.9922 6.7768 3.053 3.7272 0.9134 7.4397 2.08 8.25 2.5924 2.7792 1.7576-1.6084 1.0787-10.762-1.6652-11.689-3.5038-14.638-3.9915-14.084-2.3288 0.23982 0.71946 3.6722 2.1769 7.6274 3.2387s7.1914 2.298 7.1914 2.747c0 0.82965-13.104-2.5261-16.184-4.1444-2.36-1.24-8.82-1.1-8.82 0.19 0 0.63612-1.6764 0.93919-4.1486 0.75-4.2578-0.32584-6.5903 1.5463-3.1567 2.5338 0.99294 0.28556-0.89466 0.24595-4.1947-0.088-9.2325-0.93437-9.9142-0.87808-10.265 0.84765-0.43705 2.1481 25.701 7.3063 31.765 6.2688 0.825-0.14114 5.775-1.1551 11-2.2533zm-12.356-3.757c-2.6706-0.82027-4.6581-1.6889-4.4167-1.9303 0.74485-0.74484 11.772 1.7835 11.772 2.6991 0 1.1644-1.6092 0.99627-7.3556-0.76876zm29.86-4.37c-2-0.85943-2-0.85943 0-0.85943 1.1 0 2.9 0.38674 4 0.85943 2 0.85943 2 0.85943 0 0.85943-1.1 0-2.9-0.38674-4-0.85943zm16-3.5112-3-1.421 4 0.62195c7.0399 1.0946 9.655 2.1308 5.5 2.1793-1.925 0.0225-4.85-0.59861-6.5-1.3802zm9.0924-1.4556-4.9076-1.793 4.1576-0.39649c2.2867-0.21807 4.1576-0.0959 4.1576 0.27153 0 0.36741 1.125 0.95037 2.5 1.2955 2.8374 0.71213 3.4136 2.6347 0.75 2.5024-0.9625-0.0478-3.9584-0.89378-6.6576-1.8799zm12.91 0.2c-2.8601-0.60224-4.3436-2.243-1.95-2.1567 2.7454 0.099 6.0016 1.4867 4.8836 2.0813-0.51349 0.27311-1.8336 0.30706-2.9336 0.0754zm3.5-3.276c-1.686-0.57301-0.87192-0.66164 2.5-0.27219 2.75 0.31761 5.1875 0.74482 5.4167 0.94935 0.78744 0.70278-5.4183 0.17197-7.9167-0.67716zm12.5-0.95c-1.3187-0.56668-1.4891-0.87815-0.5-0.9144 0.825-0.0302 2.175 0.38124 3 0.9144 1.828 1.1813 0.24909 1.1813-2.5 0zm27-5.0487c-6.395-1.6678-6.5679-1.7768-2-1.2616 2.75 0.31016 6.35 1.1452 8 1.8556 4.0688 1.7518 2.3376 1.5804-6-0.59395zm10.231-1.6072c0.67703-0.27392 2.027-0.29059 3-0.0371 0.97297 0.25354 0.41903 0.47766-1.231 0.49804-1.65 0.0204-2.4461-0.18706-1.769-0.46099zm-486.5 21.271c1.2965-1.968 0.841-2.4278-2.9847-3.0128-7.8662-1.2027-122.03-13.293-161.75-17.131-2.75-0.26566-6.7483-0.75529-8.8851-1.0881l-3.8851-0.60504 0.66086-8.7543 0.66086-8.7542-3.7757-0.62402c-2.0767-0.3432-8.5435-0.62896-14.371-0.63501-11.589-0.012-11.977 0.15899-15.319 6.757-2.0428 4.0323-2.8239 3.7619 14.821 5.1322 15.457 1.2004 15.066 1.0802 14.238 4.3791-0.58948 2.3487-0.708 2.3688-11.87 2.0141-19.141-0.60816-19.956-0.80952-19.218-4.745 0.34548-1.8415 0.17932-3.5933-0.3732-3.9348-1.5198-0.93928 0.73502-7.1886 3.5468-9.8301 5.8261-5.4734 36.107-1.8872 34.952 4.1393-0.27175 1.4175-0.8069 4.1822-1.1892 6.1439l-0.69516 3.5667 5.3511 0.21322c5.075 0.20221 22.451 1.7587 68.851 6.1677 19.943 1.895 26.559 2.6359 80 8.9599 14.025 1.6596 25.826 3.0194 26.225 3.0217 0.39875 0.002 0.45174 1.4667 0.11776 3.2542-0.88484 4.7358 1.5538 2.1425 2.6797-2.8497 1.1002-4.8781 5.4786-3.7664-35.118-8.9168-67.718-8.5912-77.859-11.102-82.85-20.516l-1.8729-3.5326-52.841-2.7301c-91.493-4.7271-170.82-3.5559-176.99 2.6131-1.8196 1.8196 18.425 3.9198 64.651 6.707 18.425 1.1109 40.044 2.525 48.042 3.1424l14.542 1.1225-0.15648 4.9316c-0.18968 5.9778 0.23444 6.2105 13.072 7.1745 20.384 1.5306 20.341 1.51 15.023 7.1487l-3.4772 3.6869-11.577-0.668c-14.82-0.84-13.99-0.36-13.99-8.01 0-8.6181 1.2998-8.1636-27-9.4408-13.75-0.62054-40.064-1.8081-58.476-2.6391-18.412-0.83095-33.914-1.9492-34.45-2.485-1.3005-1.3005-4.943-1.2294-9.9581 0.19443-10.588 3.0059-8.4893 3.3661 30.884 5.3012 31.672 1.5566 74.34 4.102 84 5.0111 2.75 0.25882 6.4625 0.4815 8.25 0.49485l3.26 0.02v5.345c0 7.4712 1.089 8.1618 15.219 9.6516 14.7 1.5499 24.084-2.8424 23.062-10.795-0.42203-3.2849 0.63819-4.6937 2.0644-2.7432 1.1069 1.5138 8.048 2.4526 48.722 6.5898 60.079 6.1111 123.13 12.898 124.43 13.393 1.46 0.55603 4.8836-0.53412 5.7347-1.826zm327.96-3.5641c22.552-4.2667 57.421-10.177 76.83-13.023 11.259-1.6509 30.821-4.7581 43.471-6.9049s28.715-4.6934 35.699-5.6591c9.1609-1.2666 12.859-2.1729 13.274-3.253 0.96998-2.5278-0.15019-2.6296-10.738-0.97581-78.33 12.24-167.07 25.77-169.01 25.77-2.1538 0-3.311-1.6587-9.1873-13.169-3.6977-7.243-9.8706-19.055-13.718-26.25-3.84-7.19-12.38-24.33-18.98-38.08-6.59-13.75-15.03-30.625-18.75-37.5-11.57-21.372-12.03-24.05-4.3-25.393 45.04-7.833 91.65-13.94 126.23-16.538 53.099-3.9894 133.3-5.0227 139.5-1.7975 4.0789 2.1202 24.201 19.256 46 39.173 6.05 5.5277 13.025 11.891 15.5 14.141 15.749 14.315 56.823 52.477 58.405 54.263 4.3219 4.8823-0.2131 1.3666-16.108-12.488-9.23-8.05-23.31-20.27-31.29-27.15-7.98-6.884-27.25-23.808-42.83-37.612s-28.87-25.399-29.52-25.768c-6.45-3.638-110.12-2.812-152.15 1.213-53.9 5.161-116.48 14.935-116.5 18.194-0.002 0.40561 9.8373 20.206 21.865 44s26.717 53.49 32.643 65.991c10.189 21.494 12.535 25.097 15.249 23.419 0.91637-0.56635 36.627-6.5502 60.239-10.094 9.075-1.362 32.25-4.9333 51.5-7.9363s36.54-5.6079 38.423-5.7887c1.8826-0.1808 3.6267-0.94845 3.8757-1.7059 0.51953-1.5803-27.839-0.67802-30.983 0.98582-0.92634 0.49025-4.1391 0.89136-7.1395 0.89136s-9.2175 0.72783-13.816 1.6174c-29.901 5.7846-94.503 15.956-95.659 15.062-2.6652-2.0618-0.90274-5.0408 3.7983-6.4197 9.4228-2.764 33.752-9.0618 39.5-10.225 17.202-3.4805 26.397-5.073 30-5.1954 2.2-0.0748 5.1568-0.94244 6.5708-1.9282 5.2814-3.682 10.832-4.209 36.732-3.488 13.583 0.37811 35.935 0.91343 49.671 1.1896 27.304 0.54897 25.848 0.38423 24.914 2.8192-0.5404 1.4083-1.4919 1.6128-5.2735 1.1335-17.44-2.21-79.11-3.51-79.11-1.67 0 1.6835 4.7067 2.0628 25.583 2.0614 11.504-0.00078 25.867 0.46217 31.917 1.0288 6.05 0.5666 14.848 1.3135 19.551 1.6598l8.5511 0.62966 1.2035-4.017c1.5504-5.1749 2.3074-5.6791 10.694-7.1242 7.1346-1.2292 15.401-3.5058 19-5.2324 1.1-0.52776 4.025-0.88553 6.5-0.79506 7.6778 0.28066 18.754-1.57 20.873-3.4876 1.8442-1.669 3.8063-1.7147 32.295-0.75334 18.436 0.62214 30.695 0.66323 31.258 0.10475 0.5634-0.55896 1.4745-0.46376 2.3262 0.24306 6.3162 5.242 2.2358-2.6098-4.5077-8.6741-4.2-3.83-12.2-11.28-17.7-16.56-54.27-52.119-101.84-91.455-111.75-92.417-59.03-5.734-182.9 3.14-252.25 18.072-19.423 4.1818-19.382 4.0791-9.0323 23.13 4.1072 7.56 17.759 34.895 30.337 60.745s25.286 51.818 28.239 57.708c6.5614 13.084 6.1028 12.881 22.155 9.8436zm133.56-41.74c-2.8346-0.74074-2.0768-2.8881 3.8444-10.895 17.184-23.236 47.952-31.015 64.036-16.189l4.2877 3.9522 7.0671-1.6074c11.886-2.7035 42.347-2.5574 47.515 0.22777 6.2729 3.3804 10.777 8.2572 9.1386 9.8954-0.64 0.66-6.63-3.53-6.63-4.64 0-5.0479-46.846-4.6392-67.429 0.58838-11.263 2.8605-19.456 8.3884-21.65 14.608-1.2656 3.5871-4.9213 5.469-4.9213 2.5334 0-7.264 6.9026-13.923 17.876-17.246 16.035-4.8551-3.0823-8.6696-19.859-3.9623-6.3452 1.7804-16.453 9.7791-22.706 17.969-4.0103 5.2521-5.7306 6.0285-10.561 4.7663zm-79.75-79.027c0-2.1986 0.33165-2.2873 9-2.4077 4.95-0.06875 9.3375-0.20899 9.75-0.31165s4.575-0.53319 9.25-0.95673c33.992-3.0795 38.248-4.6903 36.17-13.69-2.29-9.9209 1.1054-10.497 4.3948-0.74601 4.6346 13.739 3.2137 14.429-37.565 18.244-27.777 2.5982-31 2.5845-31-0.13195zm-7.9306-1.9717c-2.0024-7.2111-0.94168-16.621 1.815-16.101 1.8516 0.34919 4.2451 13.831 3.0696 17.29-1.2163 3.5788-3.7306 2.9668-4.8846-1.189zm32.052-9.5892c-2.1111-2.1111-1.377-5.8839 1.0769-5.5347 2.1442 0.30509 6.0089-4.3129 4.7026-5.6192-0.29997-0.29997-6.813 0.11969-14.473 0.9326-16.24 1.723-19.43 1.823-19.43 0.606 0-1.7685 14.824-3.7569 30.343-4.0698 1.6049-0.03236 1.7984-0.74683 1.5-5.5385-0.24394-3.9176 0.0173-5.501 0.90745-5.5 0.6875 0.000749 1.25 0.12022 1.25 0.26548s0.84187 2.5674 1.8708 5.3825c4.0171 10.99-1.7174 25.107-7.749 19.075zm14.63-12.503c-0.9625-0.20121-1.75-0.96044-1.75-1.6872 0-1.5238 23.789-2.7884 25.45-1.3529 2.8432 2.4569-15.335 4.7888-23.7 3.0401zm-143.75 143.25c0-2.2461-0.29893-2.2777-27.5-2.9112-13.75-0.3202-27.925-0.82009-31.5-1.1109-3.575-0.29078-14.825-1.1712-25-1.9565-14.838-1.1452-69.972-6.3252-95.5-8.9725-2.75-0.28518-9.5-0.96709-15-1.5154-5.5-0.54827-19.155-2.1701-30.345-3.6041-15.294-1.9599-20.63-2.3226-21.492-1.461-1.5841 1.5841 0.86333 3.0278 5.1661 3.0476 1.831 0.008 24.106 2.2886 49.5 5.067 25.394 2.7785 57.871 6.1353 72.171 7.4596s27.8 2.6349 30 2.9123c5.1015 0.6434 14.276 1.286 38 2.6619 10.45 0.60603 19.188 1.2847 19.417 1.5081 1.41 1.38 32.07 0.3 32.07-1.13zm-7.3372-6.0324c0.71-1.85-1.17-6.44-2.64-6.44-0.56 0-1.02 0.7-1.02 1.56 0 2.923-2.2305 0.20919-5.1868-6.3108-6.5381-14.419-10.12-17.147-20.707-15.768-11.685 1.5216-16.883 0.002-8.418-2.4608 11.313-3.2914 17.171-2.2502 24.047 4.2744 5.8638 5.5641 4.491-1.8815-3.0619-16.607l-3.17-6.19-11.5-1.29c-6.325-0.70736-15.225-1.8571-19.778-2.555-8.5363-1.3085-9.894-1.1738-8.2415 0.81729 0.52957 0.6381 1.0882 2.6555 1.2413 4.4832 0.40274 4.806-1.9271 5.0411-3.7532 0.37873-4.0288-10.286-10.348-18.425-16.206-20.873-6.4393-2.6905-6.4464-2.6789-5.6839 9.3702 0.78799 12.453-0.0871 16.362-4.6394 20.723-4.0127 3.8444-2.5995 4.3084 11.165 3.6665 20.636-0.9624 31.663 6.7204 35.2 24.525 1.5265 7.6843-3.414 2.8004-6.3224-6.25-3.1767-9.8854-9.1198-13.887-22.145-14.91-9.1159-0.71603-11.072-0.0179-7.9262 2.829 1.7519 1.5855 6.0656 10.341 7.5532 15.331 0.54241 1.8194 0.27875 2.25-1.3775 2.25-1.4112 0-2.2494-0.85544-2.6948-2.75-3.0899-13.144-9.0433-17.788-22.365-17.446-10.095 0.25906-12.303 1.1164-10.234 3.9733 2.3048 3.1826 7.2061 13.705 7.2069 15.472 0.002 3.5192-2.0747 1.5956-5.0308-4.661-5.667-11.994-9.7144-14.263-23.407-13.123-11.331 0.94387-11.48 1.0945-8.2351 8.3252 3.0911 6.8879 3.3013 8.4807 1.0599 8.0317-0.89523-0.17932-2.4779-2.642-3.5535-5.5295-3.7623-10.1-9.0478-11.662-27.565-8.1514-6.5926 1.25-6.8009 1.6513-3.7195 7.1645 1.781 3.1866 2.1894 4.7374 1.3792 5.2381-1.1547 0.71366-2.8832-1.1263-2.9119-3.0996-0.0961-6.621-9.2391-9.3867-21.015-6.357-1.925 0.49525-5.4125 0.90297-7.75 0.90603-4.0548 0.005-5.4694 1.1339-3.1883 2.5437 0.58393 0.36089 1.4335 1.6342 1.888 2.8296 0.91579 2.4087 7.2794 3.304 54.05 7.6049 11.825 1.0874 36.125 3.3718 54 5.0766 48.246 4.6012 93.575 6.223 94.663 3.3871zm74.659-9.98c14.59-3.32 14.68-3.35 14.68-5.03 0-2.1007-15.019 0.58254-25.442 4.5454-8.5503 3.2508-2.5837 3.5159 10.764 0.47818zm215.57 0.62938c2.05-1.3 0.55-4.09-2.19-4.09-2.9945 0-3.6074 0.63048-2.9727 3.0579 0.53596 2.0495 2.8349 2.5065 5.1703 1.0277zm-496.08-6.84c-0.39358-2.0749-8.3913-3.0734-10.192-1.2725-1.6597 1.6597 1.0815 2.9891 6.2008 3.0072 3.5816 0.0127 4.2664-0.28492 3.9914-1.7347zm472.56-0.5c1.5511-5.7879 0.96851-6.7475-4.1197-6.7854-2.6125-0.0195-5.875-0.67854-7.25-1.4646-3.3391-1.9088-4-1.8462-4 0.37868 0 1.7236 1.4918 2.6502 7.2202 4.4848 0.94611 0.303 2.0074 1.6952 2.3584 3.0937 0.84195 3.3546 4.9154 3.5606 5.7911 0.29282zm-160.12-0.92c6.53-1.09 9.77-3.83 4.52-3.83-5.28 0-17.77 3.37-17.77 4.8 0 1.1086 0.7733 1.2992 3.25 0.80127 1.7875-0.35938 6.2875-1.1566 10-1.7716zm-325-0.82c1.8508-1.092 5.0257-2.1045 7.0552-2.25 2.0604-0.14769 3.6909-0.79577 3.692-1.4675 0.002-1.4037 5.3067-3.0425 12.752-3.9397 6.2799-0.75678 6.2469-0.62392 1.3402-5.3857l-3.9098-3.7944 0.5499-11.935 0.5499-11.935-2.3901-0.63961c-5.7689-1.5438-39.839-0.0515-41.718 1.8273-0.28 0.27999 0.85864 2.4208 2.5303 4.7574 5.7654 8.0586 16.338 32.041 14.802 33.577-1.1849 1.1849-3.4892-2.7258-6.97-11.829-7.2284-18.904-16.642-30.421-25.772-31.53-8.0093-0.97333-8.4957 0.83735-2.1173 7.882 6.4199 7.0904 9.1687 12.262 7.4024 13.926-1.0263 0.96695-1.4042 0.92799-1.8086-0.18644-3.4442-9.4904-14.206-20.199-20.914-20.81-8.5176-0.7763-9.1845 1.0067-3.2608 8.719 6.7296 8.7615 8.4003 11.936 7.0122 13.324-1.1918 1.1918-0.73375 1.7252-10.144-11.813-6.1333-8.8239-11.381-11.45-17.401-8.7068-2.9697 1.3531-2.7392 2.2351 2.738 10.481 2.1398 3.2215 3.6438 6.5002 3.3423 7.286-0.76672 1.998-3.5623 1.7852-4.2209-0.32129-3.7845-12.106-7.7273-16.25-15.462-16.25-7.7271 0-8.1402 1.181-2.9863 8.5384 2.232 3.1862 4.0581 6.3935 4.0581 7.1274 0 2.223-1.9884 1.4948-2.9703-1.0877-2.9491-7.7567-8.0939-12.69-12.909-12.378-5.613 0.36383-7.0224 4.7359-3.1954 9.9122 2.425 3.28 2.6922 5.8873 0.60338 5.8873-0.81418 0-1.8397-1.4213-2.2959-3.182-1.3191-5.0905-2.954-4.4209-6.4333 2.6347-4.4734 9.0717-3.9685 9.6794 9.2963 11.189 5.7224 0.65125 17.829 2.3623 26.904 3.8022 9.075 1.44 26.4 3.7512 38.5 5.136s25.15 3.1101 29 3.8339c9.8837 1.8582 10.974 1.8287 14.751-0.39947zm345.45-2.5717c10.33-1.66 11.3-1.97 11.3-3.62 0-0.65355-1.0506-0.79516-2.75-0.37069-1.5125 0.37778-6.7643 1.2177-11.671 1.8666-5.334 0.70539-9.0865 1.6823-9.3333 2.4297-0.53059 1.6068 0.75524 1.5751 12.453-0.30724zm256.3-0.51c0-1.5718-0.5386-1.9927-2.2398-1.75-3.3237 0.4742-3.6159 3.8196-0.3335 3.8196 1.9355 0 2.5733-0.51297 2.5733-2.0696zm15.392-2.4875c11.69-0.18354 21.32-0.75545 21.863-1.2984 1.9031-1.9031-0.4598-3.1452-6.0644-3.1881-3.1301-0.0239-7.716-0.43599-10.191-0.91564-2.7001-0.52326-6.6144-0.4829-9.7861 0.10092-6.739 1.2404-20.649-1.6195-17.846-3.6692 2.8772-2.1039 1.7638-3.3846-3.6184-4.162l-5.25-0.75835 3.9218-0.52609c6.6156-0.88746 5.6697-3.0261-1.3385-3.0261-4.7059 0-6.0833 0.33531-6.0833 1.481 0 1.9426-2.0172 2.2867-17.5 2.9852-29.492 1.3304-81.858 6.4923-83.608 8.2414-4.2378 4.2378 2.1927 4.652 30.338 1.9546 39.477-3.7834 51.22-4.7047 60.759-4.7666 5.3141-0.0345 8.759-0.48976 9.2084-1.217 0.9537-1.5431 2.3555 0.0257 3.1912 3.5715 0.7738 3.2829 0.9677 3.2559-5.3899 0.75-5.448-2.1474-12-2.6656-12-0.94897 0 1.4788 6.2999 3.9405 10.218 3.9926 1.8051 0.024 5.9821 0.65203 9.2821 1.3956 3.3 0.74358 6.675 1.1224 7.5 0.84186 0.825-0.28056 10.902-0.65773 22.392-0.83816zm-248.09-2.8986c7.3166-0.88508 7.4051-3.197 0.10461-2.7305-6.9364 0.44316-8.4116 1.0352-8.4116 3.376 0 1.5102 0.33141 1.7902 1.25 1.056 0.6875-0.54948 3.8631-1.3152 7.057-1.7015zm-326.39-0.50199c2.9389-1.5729 14.855-3.1903 26.579-3.6078 6.05-0.21545 14.825-0.73929 19.5-1.1641 6.0963-0.55397 9.8424-0.39759 13.247 0.55297 4.0847 1.1404 4.954 1.1184 6.2302-0.15776 1.8223-1.8223 8.5077-3.0432 12.251-2.2373 2.2107 0.47593 3.0059 0.13874 3.9285-1.6658 7.0239-13.737 6.6729-12.327 6.0292-24.227-1.7-31.514-10.97-51.53-23.87-51.53-5.95 0-6.81 0.232-6.81 1.845 0 4.0397-2.8756 4.9828-19.011 6.2352-21.162 1.6425-20.081 1.035-19.847 11.155 0.15483 6.703-0.40753 10.324-2.9751 19.158-1.75 5.99-3.17 11.53-3.17 12.3 0 5.69-15.31 26.31-19.53 26.31-3.102 0-4.3179-2.0823-2.0077-3.4381 11.485-6.7404 23.437-38.92 22.441-60.42-0.09-2.003-0.06-4.092 0.08-4.642 1.2243-4.8401-5.2953-6.061-13.167-2.4656-8.3346 3.807-21.294 64.337-15.219 71.085 4.335 4.8152 12.429 8.4721 15.323 6.9232zm444.08-5.66c0-1.1885-0.59587-1.457-2.25-1.0137-1.2375 0.33164-2.5875 0.60913-3 0.61664-2.4166 0.044-0.21575 2.0136 2.25 2.0136 2.0962 0 3-0.48704 3-1.6166zm11.25-1.0737c1.575-0.8981 0.65317-2.309-1.5-2.296-3.8552 0.0234-6.75 1.1592-6.75 2.6483 0 1.3298 5.7292 1.0851 8.25-0.3523zm-624.98-6.49c3.1668-9.903 15.159-27.914 39.982-60.049 3.72-4.801 6.75-9.08 6.75-9.509 0-0.42924 0.9-1.3425 2-2.0294 1.1-0.68696 2-2.1452 2-3.2405 0-1.096 0.42-1.992 0.93-1.992 0.50964 0 5.2329-4.3875 10.496-9.75 8.67-8.845 11.1-12.25 8.72-12.25-0.84 0-24.15 23.785-24.15 24.643 0 0.24434-5.6442 7.5122-12.543 16.151-27.16 34.006-44.55 63.206-37.65 63.206 1.2995 0 2.2758-1.4593 3.4656-5.18zm639.73 4.15c0-0.56727-0.675-1.2904-1.5-1.607-2.0027-0.76852-4.7866 0.3656-4.0044 1.6313 0.81898 1.3251 5.5044 1.3044 5.5044-0.0243zm-757.88-2.5809c4.5052-4.0772 0.5033-6.9348-4.186-2.9891-1.69 1.43-3.5 2.6-4.01 2.6-0.5 0-0.92 0.73-0.92 1.63 0 2.1204 6.3657 1.2532 9.124-1.2431zm766.7 0.27937c0.19-0.97-0.31-1.67-1.19-1.67-1.8577 0-2.979 1.6302-2.0997 3.0528 0.90454 1.4636 2.9012 0.62281 3.2907-1.3857zm93.18-0.38c0-0.78413-1.2707-1.2909-3.25-1.2962-1.7875-0.005-5.6125-0.29246-8.5-0.63929-4.3898-0.52727-5.25-0.37097-5.25 0.9539 0 1.1755 1.2261 1.673 4.75 1.9274 8.9542 0.64644 12.25 0.39197 12.25-0.94583zm-83.203-1.4706c0.2384-1.2379-0.2038-1.5232-1.7385-1.1219-1.132 0.29604-2.0582 1.1938-2.0582 1.9949 0 1.9992 3.3939 1.2188 3.7967-0.87305zm17.977-0.6227c0.32575-0.98801-0.85284-1.2314-4.8428-1-3.2234 0.18692-5.4407 0.81339-5.7039 1.6116-0.32575 0.98801 0.85284 1.2314 4.8428 1 3.2234-0.18692 5.4407-0.81339 5.7039-1.6116zm14.22 0.12c0-1.4041-6.5238-1.8233-10.75-0.69072-4.4262 1.1862-2.136 2.3668 4.25 2.1908 4.6293-0.12755 6.5-0.55928 6.5-1.5001zm10 0.68c0-0.55-0.9-1-2-1s-2 0.45-2 1 0.9 1 2 1 2-0.45 2-1zm7 0c0-0.55-0.9-1-2-1s-2 0.45-2 1 0.9 1 2 1 2-0.45 2-1zm-807.47-3.0099c10.474-3.9822 59.441-49.518 83.329-77.49 4.697-5.5 11.151-12.829 14.343-16.287 5.4017-5.8522 7.467-9.9227 4.5526-8.9726-0.6875 0.22413-4.625 4.271-8.75 8.993-42.958 49.175-88.141 88.734-101.96 89.269-6.6287 0.25626-8.2463 1.3407-6.0134 4.0312 1.4296 1.7226 10.423 2.0058 14.498 0.4565zm2.6955-9.3467c9.2368-4.1237 63.864-55.891 61.487-58.269-0.7-0.685-27.71 22.54-40.77 35.059-6.36 6.09-15 13.77-19.2 17.07-10.115 7.9402-10.685 10.232-1.528 6.1434zm421.77-0.57c0-0.51072-0.60393-1.5325-1.3421-2.2706-1.934-1.934-3.6802-5.439-5.0268-10.09-0.64632-2.2323-1.6835-4.2282-2.3048-4.4353-1.5696-0.5232-6.0042 13.31-5.4415 16.975 0.17 1.1 14.12 0.92 14.12-0.18zm-21-6.82c0.63126-3.1625 2.5337-9.2757 4.2276-13.585l3.0798-7.835-1.7203-5.4574c-0.94615-3.0016-5.1788-12.859-9.4058-21.905l-7.68-16.446-4.93-1.509c-2.71-0.831-5.47-1.51-6.13-1.51-1.5198 0-4.1562 7.1867-10.396 28.339-2.7321 9.2615-5.8671 19.244-6.9667 22.183l-1.9992 5.3435 5.0259 1.6693c4.8375 1.6067 10.829 6.4312 13.934 11.219 1.325 2.0435 9.3811 4.0467 20.64 5.1323 0.6653 0.0642 1.678-2.3897 2.326-5.6364zm7.1719-4.0577c2.1395-6.5836 2.5199-9.5636 1.3012-10.192-1.0928-0.56379-5.3266 10.246-5.418 13.833-0.10193 4.0012 2.3331 1.8475 4.1167-3.641zm-159.78-2.38c0.94542-4.7271-0.38995-5.4159-7.6376-3.9395-12.499 2.5461-14.073 5.8967-2.9999 6.3836 4.2625 0.18745 8.2562 0.43138 8.875 0.54207 0.61875 0.11068 1.4119-1.2331 1.7625-2.9863zm-117.81-0.27413c13.817-2.0345 37.492-4.2924 52.926-5.0475 7.15-0.3498 23.575-1.2762 36.5-2.0588 12.925-0.78253 24.85-1.4263 26.5-1.4306l3-0.008 2.3259-10.701c4.8247-22.198 19.953-33.811 31.02-23.813l4.055 3.6635 10.58-1.5718c5.8-0.862 12.31-1.569 14.45-1.569 4.84 0 7.05-0.811 7.05-2.581 0-6.4793 20.331-5.8985 24.701 0.7057 2.5935 3.9191 4.299 4.2616 4.299 0.86339 0-1.0418 2.6888-6.0777 5.9751-11.191l5.97-9.297-3.22-0.637c-1.78-0.35-7.28-0.917-12.23-1.26s-15.08-1.067-22.5-1.609c-45.97-3.356-134.39-5.128-141.1-2.828-4.92 1.685-10.1 6.495-24.61 22.834-19.263 21.695-39.307 49-35.97 49 0.17813 0 4.7906-0.65773 10.25-1.4616zm673.85-2.1055c0.3544-1.4119 1.9753-3.3244 3.6021-4.25 6.4641-3.6779 0.6707-5.596-8.5296-2.824-5.0819 1.5312-5.2994 4.1858-0.60212 7.3513 4.2857 2.8881 4.7408 2.8653 5.5296-0.27728zm-8.65-8.68c-0.47189-1.4157-2.08-1.26-2.5833 0.25-0.18334 0.55 0.41666 1 1.3333 1 0.91667 0 1.4792-0.5625 1.25-1.25zm-439.75-13.247c0-0.82337 2.7815-9.8169 6.181-19.986 3.3996-10.169 5.9871-18.655 5.75-18.859-1.9-1.635-6.93-1.44-6.93 0.268 0 1.0316-2.7617 6.6887-6.1371 12.571l-6.1372 10.696 1.5854 5.7024c2.79 10.038 5.69 14.935 5.69 9.608zm9.6559-17.772c-0.28-0.677-0.49 0.119-0.47 1.769 0.0204 1.65 0.2445 2.2039 0.49804 1.231 0.25354-0.97297 0.23687-2.323-0.0371-3zm4.35-4.481c0.007-0.9625 0.91538-4.6292 2.0184-8.1483 1.6275-5.1923 1.8429-10.819 0.2425-6.3339-0.24881 0.69732-1.1183 1.9338-1.9322 2.7477-3.15 3.153-4.56 13.484-1.84 13.484 0.825 0 1.5058-0.7875 1.5129-1.75zm79.49-48.298c10.45-1.0417 31.825-2.8235 47.5-3.9595s39.504-2.949 52.953-4.0289c13.45-1.08 25.1-1.964 25.88-1.964 1.0935 0 1.1562-0.31676 0.2733-1.3806-1.48-1.783-1.98-1.807-106.1-5.1909-41.56-1.3507-70.57-1.3267-103.5 0.0855-4.95 0.21231-20.7 0.43602-35 0.49715-41.886 0.17905-118.19 4.3088-121.27 6.5638-2.4035 1.7575 2.6246 2.1207 46.771 3.3789 20.625 0.58781 44.925 1.5083 54 2.0456 64.786 3.8355 86.254 5.2358 91.5 5.9685 7.5615 1.0562 22.698 0.40705 47-2.0156zm-402.5 273.49c0-0.85746 0.45-1.2809 1-0.94098s1 1.0415 1 1.559c0 0.51754-0.45 0.94098-1 0.94098s-1-0.70156-1-1.559zm-12-13.364c-13.611-14.042-27.335-22.309-40.745-24.544-3.9155-0.65263-6.1033-2.0188-4.9999-3.1221 0.57401-0.574 10.863 1.8897 16.517 3.955 6.575 2.4017 17.141 8.6035 18.279 10.728 0.56081 1.0479 1.8285 1.9052 2.8171 1.9052s3.3288 1.9125 5.2005 4.25 5.772 6.8336 8.6674 9.9913 5.2643 5.9702 5.2643 6.25c0 1.5119-2.4018-0.54364-11-9.414z"/>
</svg>
