<?xml version="1.0" encoding="iso-8859-1"?>
<!-- Uploaded to: SVG Repo, www.svgrepo.com, Generator: SVG Repo Mixer Tools -->
<svg fill="#000000" height="800px" width="800px" version="1.1" id="Layer_1" xmlns="http://www.w3.org/2000/svg" xmlns:xlink="http://www.w3.org/1999/xlink" 
	 viewBox="0 0 512 512" xml:space="preserve">
<g>
	<g>
		<path d="M503.467,34.133H256c-141.158,0-256,114.842-256,256v179.2c0,4.719,3.814,8.533,8.533,8.533H128
			c4.719,0,8.533-3.814,8.533-8.533v-179.2c0-65.877,53.589-119.467,119.467-119.467h247.467c4.719,0,8.533-3.814,8.533-8.533
			V42.667C512,37.948,508.186,34.133,503.467,34.133z M76.8,426.667c0,4.719-3.814,8.533-8.533,8.533s-8.533-3.814-8.533-8.533
			V409.6c0-4.719,3.814-8.533,8.533-8.533s8.533,3.814,8.533,8.533V426.667z M76.8,354.876c0,4.719-3.814,8.533-8.533,8.533
			s-8.533-3.814-8.533-8.533v-36.48c0-4.719,3.814-8.533,8.533-8.533s8.533,3.814,8.533,8.533V354.876z M86.724,231.177
			c-3.797,10.906-6.545,22.272-8.166,33.766c-0.597,4.267-4.25,7.347-8.439,7.347c-0.393,0-0.794-0.026-1.195-0.085
			c-4.676-0.657-7.927-4.966-7.262-9.626c1.766-12.604,4.779-25.062,8.943-37.018c1.553-4.454,6.4-6.81,10.871-5.257
			C85.922,221.858,88.277,226.722,86.724,231.177z M133.862,158.993c-8.474,7.893-16.222,16.657-23.031,26.052
			c-1.664,2.295-4.275,3.524-6.912,3.524c-1.732,0-3.49-0.529-5.001-1.63c-3.814-2.765-4.668-8.098-1.903-11.913
			c7.458-10.283,15.94-19.874,25.216-28.518c3.447-3.217,8.858-3.038,12.058,0.427C137.506,150.383,137.318,155.785,133.862,158.993
			z M209.186,117.12c-11.187,3.012-22.118,7.142-32.512,12.279c-1.212,0.597-2.509,0.887-3.772,0.887
			c-3.149,0-6.178-1.749-7.663-4.753c-2.091-4.224-0.358-9.344,3.866-11.435c11.392-5.623,23.381-10.155,35.627-13.466
			c4.565-1.212,9.225,1.468,10.47,6.016C216.422,111.198,213.734,115.883,209.186,117.12z M297.591,110.933h-36.48
			c-4.719,0-8.533-3.814-8.533-8.533s3.814-8.533,8.533-8.533h36.48c4.719,0,8.533,3.814,8.533,8.533
			S302.31,110.933,297.591,110.933z M388.804,110.933h-36.48c-4.719,0-8.533-3.814-8.533-8.533s3.814-8.533,8.533-8.533h36.48
			c4.719,0,8.533,3.814,8.533,8.533S393.523,110.933,388.804,110.933z M460.8,110.933h-17.067c-4.719,0-8.533-3.814-8.533-8.533
			s3.814-8.533,8.533-8.533H460.8c4.719,0,8.533,3.814,8.533,8.533S465.519,110.933,460.8,110.933z"/>
	</g>
</g>
</svg>